<svg width="1000" height="191" viewBox="0 0 1000 191" fill="none" xmlns="http://www.w3.org/2000/svg">
<g clip-path="url(#clip0_403_2)">
<path d="M105.143 85.3329C100.524 79.4758 94.2382 75.3329 86.1906 72.7615C91.9525 69.6187 96.381 65.6187 99.4763 60.8091C102.572 55.9996 104.095 50.5234 104.095 44.4758C104.095 37.1901 102.429 30.7139 99.1906 25.1425C95.9048 19.5234 91.2858 15.1901 85.3334 12.1425C79.381 9.04725 72.5239 7.52344 64.9048 7.52344H0V147.095H65.0477C74.3334 147.095 82.5715 145.381 89.6667 141.904C96.762 138.476 102.286 133.619 106.191 127.381C110.095 121.19 112.048 114 112.048 106C112 98.0472 109.714 91.1901 105.143 85.3329ZM30.3334 32.4282H55.0477C60.4762 32.4282 64.8096 33.8568 68.0953 36.6663C71.381 39.4758 73.0001 43.1901 73.0001 47.7139C73.0001 52.2377 71.3334 55.9044 68.0001 58.7615C64.6667 61.6187 60.2381 62.9996 54.6667 62.9996H30.3334V32.4282ZM75.1429 117.285C71.4286 120.428 66.5715 122 60.5239 122H30.3334V87.8568H60.7143C66.6191 87.8568 71.4286 89.4282 75.1429 92.571C78.8096 95.7139 80.6667 99.8091 80.6667 104.809C80.7144 110 78.8572 114.142 75.1429 117.285Z" fill="#1D9ADD"/>
<path d="M160.857 0H131.619V147.095H160.857V0Z" fill="#1D9ADD"/>
<path d="M252.905 134.285C249.524 139.095 245.238 142.714 240.095 145.238C234.952 147.761 229.143 149 222.762 149C215.19 149 208.524 147.333 202.762 144C196.952 140.666 192.476 136 189.286 129.952C186.095 123.904 184.476 116.952 184.476 109V44.7139H213.714V104.476C213.714 110.285 215.524 114.952 219.095 118.523C222.666 122.095 227.381 123.904 233.143 123.904C238.809 123.904 243.428 122.095 247 118.523C250.571 114.952 252.381 110.285 252.381 104.476V44.7139H281.619V147.142H260.666L252.905 134.285Z" fill="#1D9ADD"/>
<path d="M398.762 69.2381C394.762 61.3334 388.81 54.9524 380.81 50.0953C372.81 45.2381 363.238 42.8096 352.048 42.8096C342 42.8096 333.048 45.0953 325.238 49.6191C317.429 54.1429 311.381 60.5238 307.048 68.6667C302.714 76.8571 300.524 86.2857 300.524 96.9524C300.524 107.143 302.762 116.19 307.333 124.095C311.857 132 318.238 138.143 326.476 142.476C334.714 146.809 344.238 149 355.048 149C363.619 149 371.762 147.048 379.572 143.143C387.381 139.238 393.714 133.762 398.619 126.714L376 115.381C374.238 117.762 371.429 120.143 367.524 122.476C363.619 124.809 359.333 125.952 354.667 125.952C349.143 125.952 344.714 124.857 341.286 122.667C337.905 120.476 335.476 117.857 334 114.857C332.572 111.857 331.762 108.952 331.619 106.19H403.286L404.048 94.4762C404.524 85.5714 402.714 77.1429 398.762 69.2381ZM331.714 86.5714C331.857 81.1905 333.714 76.381 337.381 72.1429C341 67.9524 346.048 65.8095 352.476 65.8095C359.238 65.8095 364.429 67.9048 368.048 72.1429C371.619 76.381 373.429 81.1905 373.429 86.5714H331.714Z" fill="#1D9ADD"/>
<path d="M432.048 144.857C425.381 142.095 420.81 139.333 418.286 136.571L429.239 118.857C435.905 123.143 444.381 125.524 454.715 126C458.858 126.143 461.858 125.429 463.667 123.952C465.477 122.429 466.381 120.619 466.381 118.476C466.381 116.714 465.762 115.095 464.477 113.571C463.239 112.048 461.286 110.857 458.619 110L447.143 106.19C440.62 104.048 435.429 102 431.572 100.048C427.715 98.0952 424.572 95.3809 422.143 91.8571C419.715 88.3333 418.477 83.6667 418.477 77.9048C418.477 72.1429 419.858 66.5714 422.619 61.1905C425.381 55.8572 429.715 51.4286 435.524 48C441.381 44.5239 448.715 42.8096 457.477 42.8096C471.953 42.8096 484.191 46.3334 494.239 53.381L482 72.4286C474.715 68.0476 467.239 65.8095 459.524 65.8095C455.762 65.8095 452.905 66.4762 450.953 67.7619C449 69.0952 448.048 70.8572 448.048 73.1429C448.048 75.1429 448.81 76.8571 450.381 78.2381C451.953 79.619 454.429 80.8095 457.858 81.8095L469 85.3809C478.286 88.5238 485.143 92.4286 489.572 97.1905C493.953 101.905 496.191 108.524 496.191 117.095C496.191 123.524 494.429 129.143 490.81 134C487.239 138.857 482.334 142.524 476.096 145.143C469.858 147.714 462.81 149 454.858 149C446.334 149 438.715 147.619 432.048 144.857Z" fill="#1D9ADD"/>
<path d="M592.524 147.095L559.524 106.571L561.238 104.476L545.191 121.095V147.095H515.762V0H545.191V83.381L582.143 44.9048H619.334L578 87.3334L629.524 147.095H592.524Z" fill="#1D9ADD"/>
<path d="M680.143 182.476C674.429 187.809 666.667 190.476 656.857 190.476C650.191 190.476 644.857 189.476 640.81 187.476L643.81 163.714C646.048 164.857 648.762 165.428 651.905 165.428C655.429 165.428 658.286 164.476 660.476 162.571C662.667 160.714 664.953 157.428 667.381 152.762L671.334 144.476L628.333 44.7139H660.191L686.381 113L710.334 44.7139H742.381L696 156.571C691.191 168.476 685.857 177.095 680.143 182.476Z" fill="#1D9ADD"/>
<path d="M934.761 102.81C927.999 102.81 922.475 108.333 922.475 115.095C922.475 117.381 923.237 119.381 924.332 121.191C923.999 121.619 923.761 122 923.428 122.476C921.856 124.952 919.666 127.048 917.189 129.619C915.951 130.905 914.618 132.286 913.237 133.714C911.618 135 909.904 136.381 908.142 137.81C904.761 140.905 900.427 143.381 895.951 146.143C891.475 148.952 886.285 151 881.047 153.381C875.523 155.048 869.951 157.476 863.904 158.381C860.904 158.952 857.904 159.762 854.856 160.095L845.57 160.905C842.475 161.333 839.57 161.143 836.237 161.048C833.094 160.857 829.808 161.095 826.856 160.571C820.808 159.81 814.856 159.048 809.142 157.381C803.332 156.238 798.142 153.762 792.999 152.048C788.237 149.571 783.38 147.667 779.475 144.952C775.523 142.333 771.713 140.143 768.856 137.524C765.951 135 763.142 133.048 761.332 130.905C757.856 127.238 755.713 125 755.38 124.619C755.713 125 757.713 127.381 760.999 131.238C762.713 133.524 765.38 135.619 768.189 138.286C770.951 141.095 774.618 143.524 778.475 146.381C782.332 149.333 787.094 151.524 791.856 154.333C796.999 156.381 802.189 159.19 808.094 160.667C813.808 162.714 820.047 163.857 826.428 165C829.618 165.714 832.713 165.619 835.904 166C838.951 166.238 842.38 166.619 845.618 166.381L855.38 166.048C858.618 165.857 861.808 165.19 864.999 164.762C871.427 164.143 877.475 161.952 883.475 160.476C889.189 158.238 894.904 156.333 899.904 153.571C904.904 150.857 909.713 148.381 913.618 145.238C915.666 143.762 917.57 142.333 919.428 141C921.189 139.476 922.761 137.905 924.332 136.476C927.428 133.619 930.142 131.048 931.713 128.857C932.285 128.19 932.713 127.619 933.237 127.048C933.761 127.143 934.237 127.333 934.761 127.333C941.523 127.333 947.047 121.81 947.047 115.048C947.047 108.333 941.523 102.81 934.761 102.81ZM934.761 118.238C933.047 118.238 931.618 116.857 931.618 115.143C931.618 113.429 932.999 112.048 934.761 112.048C936.475 112.048 937.856 113.429 937.856 115.143C937.856 116.857 936.475 118.238 934.761 118.238Z" fill="#1D9ADD"/>
<path d="M960.999 97.3809C954.189 97.3809 948.666 102.905 948.666 109.667C948.666 112.428 949.761 114.905 951.332 116.952C950.618 118.095 949.856 119.381 948.904 120.905C947.332 123.809 944.999 126.476 942.428 129.619C941.094 131.19 939.761 132.952 938.237 134.667C936.523 136.286 934.666 138.048 932.761 139.809C929.142 143.619 924.475 146.857 919.618 150.428C914.761 154.047 908.999 156.809 903.237 160.047C897.094 162.476 890.951 165.667 884.142 167.238C880.761 168.143 877.428 169.333 873.951 170L863.428 171.762C859.904 172.524 856.57 172.571 852.808 172.762C849.237 172.809 845.523 173.381 842.094 173.047C835.142 172.714 828.237 172.381 821.618 171C814.904 170.238 808.808 167.905 802.808 166.381C797.142 164 791.475 162.286 786.761 159.571C782.047 156.952 777.523 154.809 774.047 152.095C770.475 149.524 767.142 147.524 764.904 145.238C760.618 141.381 757.951 139 757.523 138.619C757.951 139.047 760.475 141.524 764.57 145.571C766.713 147.952 769.951 150.095 773.427 152.905C776.808 155.857 781.237 158.238 785.904 161.095C790.523 164.047 796.189 166.095 801.856 168.809C807.856 170.619 814.047 173.286 820.856 174.428C827.523 176.143 834.666 176.905 841.999 177.524C845.666 178.047 849.189 177.619 852.856 177.714C856.332 177.714 860.285 177.809 863.904 177.19L874.951 175.905C878.618 175.381 882.142 174.286 885.713 173.524C892.951 172.19 899.57 169.143 906.189 166.857C912.428 163.762 918.713 161.047 924.094 157.476C929.475 153.905 934.666 150.667 938.808 146.714C940.951 144.857 942.999 143.095 944.951 141.381C946.809 139.524 948.428 137.571 950.047 135.809C953.237 132.286 956.047 129.19 957.618 126.524C958.904 124.619 959.951 123.143 960.809 121.857C960.856 121.857 960.856 121.857 960.856 121.857C967.618 121.857 973.142 116.333 973.142 109.571C973.332 102.905 967.809 97.3809 960.999 97.3809ZM960.999 112.809C959.237 112.809 957.856 111.381 957.856 109.667C957.856 107.952 959.237 106.571 960.999 106.571C962.713 106.571 964.094 107.952 964.094 109.667C964.142 111.381 962.713 112.809 960.999 112.809Z" fill="#1D9ADD"/>
<path d="M987.713 94.0957C980.951 94.0957 975.427 99.6195 975.427 106.381C975.427 109.381 976.618 112.048 978.428 114.191C977.713 115.572 976.904 117.096 975.951 119C974.475 122.381 972.094 125.524 969.428 129.286C968.094 131.191 966.761 133.239 965.189 135.286C963.428 137.239 961.523 139.334 959.57 141.477C955.856 146.048 950.904 150 945.808 154.381C943.38 156.715 940.38 158.524 937.475 160.524C934.523 162.429 931.57 164.619 928.38 166.429C921.761 169.619 915.237 173.715 907.761 176.048C904.094 177.286 900.475 178.953 896.713 179.953L885.189 182.762C881.38 183.905 877.618 184.239 873.523 184.762C869.57 185.143 865.523 186.048 861.666 186C857.761 186.096 853.904 186.143 850.094 186.239C846.285 186.334 842.475 185.667 838.761 185.429C831.237 185.143 824.285 183.048 817.475 181.905C810.999 179.715 804.57 178.286 799.142 175.667C793.666 173.191 788.523 171.143 784.427 168.381C780.285 165.81 776.38 163.905 773.713 161.524C768.665 157.619 765.57 155.239 764.999 154.81C765.523 155.239 768.523 157.762 773.427 161.905C775.999 164.381 779.808 166.429 783.904 169.239C787.904 172.191 792.999 174.477 798.427 177.239C803.808 180.096 810.237 181.858 816.761 184.381C823.57 185.858 830.665 188.286 838.285 188.905C842.094 189.286 845.904 190.143 849.904 190.191C853.856 190.286 857.904 190.381 861.951 190.477C866.046 190.715 869.951 189.953 873.999 189.762C877.904 189.429 882.189 189.191 886.189 188.238L898.285 185.81C902.285 184.905 906.094 183.381 909.999 182.239C917.856 180.143 924.904 176.191 932.047 173.096C935.475 171.334 938.666 169.143 941.904 167.286C945.094 165.334 948.332 163.524 951.047 161.191C956.666 156.762 962.142 152.715 966.332 148.048C968.523 145.81 970.666 143.667 972.666 141.667C974.523 139.429 976.142 137.191 977.761 135.096C980.951 130.953 983.808 127.286 985.285 124.191C986.57 121.953 987.57 120.191 988.428 118.715C994.904 118.381 1000.09 113.096 1000.09 106.524C999.999 99.6195 994.475 94.0957 987.713 94.0957ZM987.713 109.524C985.999 109.524 984.57 108.143 984.57 106.429C984.57 104.715 985.951 103.334 987.713 103.334C989.428 103.334 990.856 104.715 990.856 106.429C990.808 108.143 989.428 109.524 987.713 109.524Z" fill="#1D9ADD"/>
<path d="M901.856 10.1431L844.951 0.28592C834.57 -1.5236 824.713 5.4764 822.904 15.8573L800.285 146.095C802.523 146.905 804.809 147.714 807.237 148.286L829.999 17.0954C831.142 10.6193 837.285 6.28592 843.713 7.42878L849.713 8.4764L849.523 9.42878C848.951 12.7145 851.19 15.8573 854.475 16.4288L887.428 22.1431C890.713 22.7145 893.856 20.524 894.428 17.2383L894.618 16.2859L900.618 17.3335C907.094 18.4288 911.428 24.6193 910.285 31.0478L891.38 140C892.951 139.238 894.475 138.429 895.904 137.524C897.142 136.762 898.332 136 899.523 135.286L917.38 32.2859C919.19 21.8574 912.237 11.9526 901.856 10.1431ZM881.999 15.9526C881.904 16.6193 881.237 17.0478 880.57 16.9526L858.761 13.1431C858.094 13.0002 857.666 12.3812 857.761 11.7145C857.856 11.0954 858.38 10.7145 858.951 10.7145C859.047 10.7145 859.094 10.7145 859.142 10.7145L880.951 14.524C881.666 14.6669 882.094 15.2859 881.999 15.9526ZM887.38 16.905C887.285 17.5716 886.618 18.0002 885.951 17.905C885.285 17.7621 884.856 17.1431 884.951 16.4764C885.047 15.8097 885.713 15.3812 886.38 15.4764C887.047 15.6193 887.523 16.2383 887.38 16.905Z" fill="#1D9ADD"/>
</g>
<defs>
<clipPath id="clip0_403_2">
<rect width="1000" height="190.476" fill="white"/>
</clipPath>
</defs>
</svg>
