<svg width="1000" height="191" viewBox="0 0 1000 191" fill="none" xmlns="http://www.w3.org/2000/svg">
<mask id="mask0_584_3" style="mask-type:luminance" maskUnits="userSpaceOnUse" x="0" y="0" width="1000" height="191">
<path d="M0 -0.000114441H1000V190.476H0V-0.000114441Z" fill="white"/>
</mask>
<g mask="url(#mask0_584_3)">
<path d="M10.7944 178.998C10.9992 179.169 11.2658 179.398 11.5658 179.674C11.8944 179.96 12.2611 180.236 12.6658 180.522C13.2897 180.922 13.8944 181.246 14.4944 181.479C15.0992 181.707 15.7373 181.822 16.3944 181.822C17.0087 181.822 17.5182 181.75 17.9373 181.603C18.3468 181.469 18.6849 181.279 18.923 181.055C19.1563 180.831 19.3278 180.56 19.4373 180.269C19.5325 179.96 19.5992 179.646 19.5992 179.307C19.5992 178.931 19.4516 178.603 19.1658 178.312C18.8754 178.017 18.5373 177.75 18.123 177.522C17.7182 177.293 17.2849 177.098 16.842 176.931C16.3944 176.769 16.0135 176.641 15.6849 176.531C14.2468 176.022 12.9801 175.479 11.8944 174.903C10.8087 174.307 9.91347 173.665 9.18966 172.946C8.45156 172.226 7.92299 171.446 7.55632 170.584C7.18966 169.717 7.00871 168.755 7.00871 167.707C7.00871 166.593 7.23728 165.56 7.6849 164.655C8.14204 163.731 8.79442 162.95 9.62775 162.298C10.4658 161.655 11.4706 161.155 12.6611 160.798C13.8325 160.436 15.1516 160.269 16.6135 160.269C17.6992 160.269 18.7611 160.388 19.7516 160.631C20.7706 160.879 21.7563 161.269 22.7325 161.817C23.1373 162.055 23.5373 162.312 23.9039 162.569C24.2706 162.831 24.5849 163.079 24.8611 163.312C25.1373 163.55 25.3516 163.779 25.5182 164.012C25.6849 164.222 25.7754 164.407 25.7754 164.565C25.7754 164.722 25.723 164.865 25.6516 164.998C25.5754 165.136 25.4611 165.284 25.2992 165.446L22.5373 168.398C22.3325 168.598 22.123 168.707 21.9135 168.707C21.7563 168.707 21.5944 168.65 21.4611 168.56C21.3135 168.465 21.1658 168.35 20.9944 168.203L20.8325 168.046C20.5944 167.841 20.3278 167.641 20.0373 167.417C19.7468 167.207 19.423 167.007 19.0801 166.831C18.7468 166.66 18.3944 166.507 18.0278 166.393C17.642 166.284 17.2563 166.226 16.8754 166.226C16.4754 166.226 16.1087 166.26 15.7611 166.326C15.4087 166.393 15.0992 166.493 14.8325 166.646C14.5658 166.779 14.3658 166.974 14.2039 167.207C14.0563 167.45 13.9658 167.726 13.9658 168.069C13.9658 168.412 14.0563 168.688 14.2325 168.946C14.3849 169.198 14.642 169.426 14.9849 169.626C15.3182 169.841 15.742 170.046 16.242 170.231C16.742 170.422 17.3182 170.617 17.9754 170.836C19.2611 171.246 20.4325 171.698 21.5087 172.16C22.5897 172.626 23.523 173.174 24.2944 173.803C25.0944 174.431 25.6992 175.198 26.1373 176.079C26.5801 176.95 26.7992 178.017 26.7992 179.279C26.7992 180.593 26.5325 181.798 25.9944 182.879C25.4468 183.96 24.6944 184.865 23.7563 185.636C22.8135 186.384 21.6944 186.969 20.4182 187.398C19.1373 187.803 17.7706 188.012 16.3039 188.012C14.923 188.012 13.5563 187.769 12.2182 187.274C10.8801 186.779 9.62775 186.117 8.4849 185.279C7.99918 184.936 7.58966 184.593 7.26109 184.25C6.92775 183.903 6.65632 183.636 6.46585 183.436L6.41823 183.384C6.40871 183.35 6.39918 183.336 6.38013 183.326C6.36585 183.326 6.3468 183.322 6.3468 183.303C6.33728 183.274 6.32299 183.26 6.30394 183.26C6.29442 183.255 6.29442 183.236 6.28013 183.236C5.99918 182.931 5.85156 182.693 5.85156 182.507C5.85156 182.298 5.99918 182.069 6.28013 181.822L9.39442 178.836C9.66109 178.655 9.8468 178.565 10.0087 178.565C10.1278 178.565 10.2325 178.603 10.3516 178.674C10.4801 178.755 10.6278 178.85 10.7944 178.998Z" fill="#7D9BC0"/>
<path d="M38.0799 173.176C38.2656 172.776 38.5133 172.361 38.8275 171.971C39.1323 171.58 39.4799 171.209 39.8704 170.904C40.2418 170.59 40.6656 170.342 41.099 170.157C41.5418 169.961 41.999 169.876 42.4656 169.876C43.118 169.876 43.6942 169.961 44.1799 170.123C44.6609 170.3 45.0942 170.538 45.4609 170.842C45.8418 171.133 46.1894 171.48 46.4847 171.885C46.7752 172.276 47.0466 172.719 47.3085 173.176H38.0799ZM53.3323 172.404C53.0609 171.48 52.6847 170.633 52.1847 169.833C51.6847 169.028 51.099 168.29 50.4228 167.619C49.7275 166.942 48.9799 166.371 48.1323 165.88C47.318 165.4 46.4418 165.023 45.4942 164.761C44.5609 164.5 43.5942 164.371 42.5847 164.371C41.499 164.371 40.4561 164.523 39.4704 164.804C38.4799 165.085 37.5609 165.49 36.7228 166.019C35.8847 166.519 35.118 167.161 34.4228 167.876C33.7466 168.604 33.1704 169.409 32.6942 170.276C32.218 171.147 31.8609 172.071 31.6085 173.066C31.3371 174.057 31.2085 175.085 31.2085 176.142C31.2085 177.842 31.5323 179.419 32.1847 180.861C32.8371 182.309 33.7133 183.566 34.8228 184.628C35.918 185.695 37.2228 186.528 38.6894 187.128C40.1656 187.738 41.718 188.028 43.3656 188.028C44.8561 188.028 46.2656 187.766 47.5894 187.204C48.9037 186.671 50.099 185.89 51.1514 184.923C51.3371 184.78 51.499 184.642 51.6323 184.466C51.7609 184.295 51.8371 184.085 51.8371 183.838C51.8371 183.709 51.8037 183.576 51.7704 183.447C51.7275 183.328 51.6514 183.185 51.5228 183.023L49.599 180.861C49.3942 180.657 49.218 180.495 49.0561 180.385C48.8942 180.285 48.7323 180.233 48.5656 180.233C48.4275 180.233 48.2752 180.266 48.1323 180.342C47.9942 180.428 47.818 180.547 47.6228 180.69C47.4275 180.928 47.1228 181.133 46.7752 181.319C46.4275 181.523 46.0275 181.7 45.6037 181.842C45.1704 182.004 44.7371 182.114 44.2704 182.209C43.8133 182.295 43.3656 182.338 42.9323 182.338C42.4561 182.338 41.9466 182.276 41.3894 182.142C40.8466 182.014 40.3514 181.795 39.8704 181.48C39.3847 181.166 38.9609 180.766 38.5894 180.257C38.2228 179.733 37.9799 179.08 37.8609 178.314H50.8609C51.6323 178.314 52.2037 178.257 52.5942 178.18C52.9894 178.085 53.2609 177.919 53.4418 177.695C53.5942 177.452 53.7037 177.138 53.7133 176.747C53.7371 176.347 53.7466 175.838 53.7466 175.204C53.7466 174.242 53.618 173.304 53.3323 172.404Z" fill="#7D9BC0"/>
<path d="M59.064 166.067C59.064 165.833 59.1068 165.638 59.1925 165.467C59.2878 165.3 59.3925 165.157 59.5402 165.057C59.6687 164.948 59.8306 164.852 60.0068 164.805C60.1687 164.757 60.3449 164.724 60.5163 164.724H63.2402C63.5544 164.724 63.7878 164.805 63.9592 164.995C64.1544 165.176 64.3021 165.414 64.4354 165.681C64.5497 165.962 64.6687 166.267 64.7592 166.6C64.8544 166.943 64.9735 167.271 65.1116 167.581C65.464 167.181 65.8259 166.79 66.1735 166.405C66.5402 166.019 66.9116 165.681 67.3259 165.381C67.7402 165.076 68.183 164.824 68.6783 164.643C69.1592 164.467 69.7259 164.367 70.3449 164.367C70.9878 164.367 71.5782 164.405 72.0878 164.514C72.6068 164.614 73.0925 164.743 73.5497 164.933C74.0068 165.119 74.4544 165.362 74.9116 165.638C75.3497 165.933 75.8592 166.276 76.3878 166.662C76.9021 166.957 77.1592 167.309 77.1592 167.729C77.1592 167.986 77.0592 168.3 76.8497 168.643L75.2021 171.448C74.883 171.919 74.4735 172.148 74.0068 172.148C73.7544 172.148 73.483 172.081 73.1735 171.952C72.6592 171.448 72.1306 171.071 71.6068 170.824C71.0592 170.581 70.4592 170.452 69.7687 170.452C69.3021 170.452 68.8878 170.519 68.5354 170.648C68.183 170.776 67.8592 170.971 67.564 171.214C67.2687 171.448 66.9973 171.738 66.7544 172.081C66.4878 172.409 66.2402 172.786 65.9878 173.2V186.29C65.9878 186.743 65.8687 187.09 65.6497 187.314C65.4259 187.557 65.064 187.671 64.5497 187.671H60.4735C59.5402 187.671 59.064 187.209 59.064 186.29V166.067Z" fill="#7D9BC0"/>
<path d="M79.8752 166.51C79.6466 166.019 79.599 165.6 79.7466 165.248C79.8895 164.905 80.2609 164.724 80.8228 164.724H85.4514C85.7657 164.724 86.0418 164.805 86.2799 164.977C86.5133 165.143 86.6657 165.386 86.7752 165.705C86.9704 166.343 87.199 167.058 87.4514 167.853C87.6847 168.643 87.9514 169.462 88.2276 170.296C88.4942 171.134 88.7561 171.967 89.0276 172.8C89.2847 173.615 89.5418 174.381 89.7561 175.067C89.9799 175.772 90.1847 176.377 90.3609 176.877C90.5228 177.391 90.6561 177.748 90.7466 177.972L94.5799 165.705C94.7276 165.315 94.9038 165.058 95.1085 164.919C95.3038 164.791 95.5799 164.724 95.9466 164.724H100.694C101.042 164.724 101.313 164.767 101.489 164.848C101.68 164.939 101.794 165.058 101.861 165.2C101.918 165.348 101.937 165.51 101.88 165.7C101.861 165.881 101.794 166.081 101.713 166.277L93.1085 186.891C92.9799 187.124 92.818 187.3 92.6371 187.448C92.4657 187.605 92.1799 187.672 91.8276 187.672H89.6704C89.2038 187.672 88.8657 187.61 88.6609 187.462C88.4514 187.334 88.3085 187.139 88.218 186.891L79.8752 166.51Z" fill="#7D9BC0"/>
<path d="M112.8 165.554C112.691 165.392 112.581 165.24 112.434 165.121C112.281 164.988 112.115 164.892 111.953 164.826C111.781 164.759 111.629 164.73 111.486 164.73H107.338C106.881 164.73 106.548 164.868 106.353 165.14C106.11 165.411 106.015 165.749 106.015 166.14V186.292C106.015 187.202 106.462 187.668 107.338 187.668H111.486C111.953 187.668 112.31 187.564 112.581 187.311C112.824 187.083 112.962 186.735 112.962 186.292V166.14C112.962 165.911 112.9 165.716 112.8 165.554ZM112.562 155.926C112.3 155.707 111.953 155.597 111.553 155.597H107.338C106.881 155.597 106.548 155.707 106.353 155.926C106.11 156.13 106.015 156.488 106.015 156.997V160.516C106.015 161.516 106.462 162.016 107.338 162.016H111.553C111.748 162.016 111.953 161.959 112.138 161.864C112.3 161.754 112.443 161.626 112.581 161.483C112.691 161.321 112.777 161.154 112.853 160.983C112.91 160.821 112.962 160.668 112.962 160.516V156.997C112.962 156.488 112.824 156.13 112.562 155.926Z" fill="#7D9BC0"/>
<path d="M133.526 180.61C133.678 180.481 133.845 180.414 134.007 180.381C134.155 180.348 134.274 180.333 134.364 180.333C134.555 180.333 134.74 180.381 134.917 180.462C135.078 180.552 135.255 180.724 135.431 181.005L137.464 184.052C137.517 184.152 137.578 184.267 137.64 184.386C137.688 184.51 137.707 184.6 137.707 184.671C137.707 184.948 137.626 185.181 137.45 185.348C137.269 185.519 137.098 185.681 136.888 185.814C135.888 186.5 134.812 187.052 133.64 187.462C132.464 187.881 131.231 188.095 129.902 188.095C128.821 188.095 127.778 187.948 126.774 187.671C125.783 187.395 124.831 187 123.969 186.486C123.093 185.976 122.302 185.362 121.583 184.638C120.855 183.929 120.25 183.129 119.736 182.257C119.231 181.376 118.836 180.424 118.559 179.405C118.269 178.39 118.131 177.329 118.131 176.21C118.131 175.114 118.269 174.048 118.559 173.01C118.836 172 119.231 171.048 119.736 170.171C120.25 169.295 120.855 168.5 121.583 167.79C122.302 167.076 123.093 166.457 123.969 165.948C124.831 165.443 125.783 165.057 126.774 164.776C127.778 164.509 128.821 164.367 129.902 164.367C131.231 164.367 132.431 164.548 133.55 164.886C134.669 165.238 135.712 165.752 136.678 166.443L136.626 166.39C136.888 166.538 137.107 166.733 137.259 166.938C137.417 167.157 137.483 167.41 137.483 167.729C137.483 167.938 137.431 168.171 137.283 168.395L135.669 171.119C135.326 171.714 134.917 172.01 134.445 172.01C134.331 172.01 134.202 171.981 134.05 171.929C133.893 171.871 133.712 171.786 133.526 171.648C132.998 171.3 132.421 171.005 131.821 170.795C131.202 170.567 130.545 170.452 129.878 170.452C129.112 170.452 128.421 170.605 127.778 170.919C127.14 171.214 126.602 171.643 126.145 172.171C125.688 172.7 125.34 173.319 125.083 174.014C124.831 174.714 124.698 175.452 124.698 176.21C124.698 177.014 124.831 177.757 125.083 178.438C125.34 179.143 125.688 179.748 126.145 180.252C126.602 180.752 127.14 181.152 127.778 181.443C128.421 181.733 129.112 181.886 129.878 181.886C130.545 181.886 131.202 181.767 131.807 181.524C132.407 181.281 132.978 180.986 133.526 180.61Z" fill="#7D9BC0"/>
<path d="M149.476 165.554C149.367 165.392 149.248 165.24 149.11 165.121C148.967 164.988 148.805 164.892 148.638 164.826C148.457 164.759 148.305 164.73 148.162 164.73H144.014C143.557 164.73 143.224 164.868 143.014 165.14C142.8 165.411 142.7 165.749 142.7 166.14V186.292C142.7 187.202 143.138 187.668 144.014 187.668H148.162C148.638 187.668 148.986 187.564 149.248 187.311C149.5 187.083 149.629 186.735 149.629 186.292V166.14C149.629 165.911 149.576 165.716 149.476 165.554ZM149.238 155.926C148.976 155.707 148.638 155.597 148.219 155.597H144.014C143.557 155.597 143.224 155.707 143.014 155.926C142.8 156.13 142.7 156.488 142.7 156.997V160.516C142.7 161.516 143.138 162.016 144.014 162.016H148.219C148.434 162.016 148.638 161.959 148.814 161.864C148.976 161.754 149.119 161.626 149.248 161.483C149.367 161.321 149.453 161.154 149.529 160.983C149.586 160.821 149.629 160.668 149.629 160.516V156.997C149.629 156.488 149.5 156.13 149.238 155.926Z" fill="#7D9BC0"/>
<path d="M171.387 178.442C171.159 179.147 170.811 179.742 170.378 180.257C169.935 180.757 169.401 181.147 168.782 181.438C168.139 181.733 167.435 181.885 166.644 181.885C165.83 181.885 165.111 181.733 164.459 181.438C163.82 181.147 163.278 180.757 162.82 180.257C162.378 179.742 162.03 179.147 161.778 178.442C161.53 177.757 161.411 177.009 161.411 176.204C161.411 175.447 161.53 174.719 161.778 174.014C162.03 173.319 162.378 172.699 162.82 172.176C163.278 171.647 163.82 171.209 164.459 170.919C165.111 170.614 165.83 170.452 166.644 170.452C167.435 170.452 168.139 170.614 168.782 170.919C169.401 171.209 169.935 171.647 170.378 172.176C170.811 172.699 171.159 173.319 171.387 174.014C171.625 174.719 171.744 175.447 171.744 176.204C171.744 177.009 171.625 177.757 171.387 178.442ZM177.606 171.547C176.992 170.104 176.144 168.857 175.078 167.79C174.006 166.728 172.754 165.88 171.32 165.285C169.878 164.666 168.349 164.371 166.697 164.371C165.601 164.371 164.525 164.514 163.516 164.771C162.497 165.057 161.539 165.447 160.673 165.942C159.792 166.457 158.987 167.076 158.273 167.79C157.554 168.495 156.935 169.299 156.425 170.171C155.906 171.047 155.516 172.004 155.23 173.014C154.949 174.042 154.806 175.119 154.806 176.204C154.806 177.323 154.949 178.385 155.23 179.409C155.516 180.428 155.906 181.371 156.425 182.261C156.935 183.133 157.554 183.938 158.273 184.642C158.987 185.371 159.792 185.976 160.673 186.485C161.539 186.999 162.497 187.399 163.516 187.671C164.525 187.952 165.601 188.095 166.697 188.095C167.806 188.095 168.849 187.952 169.854 187.671C170.868 187.399 171.801 186.999 172.678 186.485C173.568 185.976 174.363 185.371 175.078 184.642C175.797 183.938 176.401 183.133 176.911 182.261C177.435 181.371 177.825 180.428 178.097 179.409C178.401 178.385 178.53 177.323 178.53 176.204C178.53 174.542 178.225 172.99 177.606 171.547Z" fill="#7D9BC0"/>
<path d="M195.847 161.626C195.847 161.398 195.923 161.202 196.085 161.06C196.251 160.912 196.451 160.836 196.69 160.836H216.137C216.356 160.836 216.547 160.902 216.709 161.04C216.89 161.174 216.975 161.364 217.004 161.626V166.121C217.004 166.331 216.928 166.536 216.785 166.745C216.628 166.936 216.413 167.04 216.137 167.04H209.909V186.826C209.909 187.036 209.832 187.24 209.67 187.412C209.509 187.583 209.304 187.674 209.056 187.674H203.761C203.556 187.674 203.361 187.593 203.185 187.431C202.99 187.269 202.909 187.06 202.909 186.826V167.04H196.69C196.451 167.04 196.251 166.96 196.085 166.807C195.923 166.65 195.847 166.421 195.847 166.121V161.626Z" fill="#7D9BC0"/>
<path d="M233.871 157.118C233.828 157.008 233.776 156.913 233.685 156.846C233.6 156.77 233.471 156.737 233.276 156.737H228.614C228.409 156.737 228.223 156.803 228.028 156.913C227.833 157.022 227.714 157.227 227.661 157.499L226.728 161.222C226.685 161.332 226.661 161.46 226.628 161.613C226.595 161.775 226.576 161.927 226.576 162.056C226.576 162.189 226.609 162.299 226.671 162.394C226.738 162.494 226.866 162.537 227.052 162.537H230.995C231.233 162.537 231.404 162.47 231.557 162.36C231.69 162.232 231.828 162.046 231.98 161.775L233.752 157.889C233.804 157.77 233.847 157.627 233.88 157.484C233.904 157.356 233.904 157.227 233.871 157.118ZM223.871 173.175C224.066 172.775 224.319 172.36 224.609 171.97C224.923 171.579 225.271 171.213 225.661 170.908C226.042 170.594 226.457 170.341 226.9 170.156C227.333 169.96 227.8 169.875 228.271 169.875C228.909 169.875 229.485 169.96 229.976 170.127C230.452 170.299 230.885 170.537 231.266 170.841C231.647 171.137 231.98 171.484 232.276 171.884C232.566 172.275 232.861 172.718 233.1 173.175H223.871ZM239.138 172.403C238.842 171.484 238.461 170.637 237.985 169.832C237.485 169.027 236.89 168.289 236.204 167.618C235.533 166.941 234.761 166.37 233.938 165.879C233.109 165.403 232.233 165.022 231.3 164.76C230.352 164.499 229.385 164.37 228.39 164.37C227.29 164.37 226.247 164.513 225.271 164.803C224.271 165.089 223.352 165.489 222.514 166.022C221.666 166.522 220.895 167.16 220.223 167.879C219.552 168.603 218.976 169.408 218.485 170.275C218.019 171.146 217.652 172.07 217.39 173.07C217.142 174.056 217 175.084 217 176.141C217 177.846 217.323 179.418 217.976 180.865C218.619 182.308 219.504 183.565 220.623 184.632C221.723 185.694 223.014 186.532 224.48 187.127C225.957 187.737 227.509 188.027 229.157 188.027C230.647 188.027 232.038 187.77 233.371 187.213C234.709 186.66 235.9 185.889 236.957 184.922C237.128 184.794 237.29 184.641 237.423 184.47C237.552 184.294 237.619 184.089 237.619 183.837C237.619 183.708 237.595 183.579 237.561 183.446C237.519 183.327 237.433 183.184 237.304 183.022L235.404 180.865C235.185 180.656 235.009 180.494 234.847 180.384C234.685 180.289 234.523 180.232 234.361 180.232C234.209 180.232 234.066 180.265 233.923 180.341C233.776 180.427 233.609 180.546 233.428 180.689C233.2 180.927 232.928 181.122 232.566 181.318C232.219 181.527 231.828 181.699 231.395 181.841C230.971 182.003 230.528 182.113 230.061 182.208C229.604 182.299 229.157 182.341 228.738 182.341C228.247 182.341 227.728 182.275 227.195 182.141C226.652 182.013 226.128 181.799 225.661 181.484C225.185 181.165 224.752 180.765 224.38 180.256C224.014 179.732 223.776 179.084 223.642 178.313H236.661C237.423 178.313 237.995 178.256 238.39 178.179C238.766 178.084 239.052 177.922 239.233 177.694C239.4 177.456 239.485 177.141 239.504 176.746C239.528 176.346 239.538 175.837 239.538 175.208C239.538 174.241 239.4 173.308 239.138 172.403Z" fill="#7D9BC0"/>
<path d="M259.649 180.61C259.811 180.481 259.973 180.414 260.121 180.381C260.273 180.348 260.387 180.333 260.473 180.333C260.678 180.333 260.873 180.381 261.035 180.462C261.207 180.552 261.387 180.724 261.559 181.005L263.568 184.052C263.645 184.152 263.697 184.267 263.749 184.386C263.807 184.51 263.84 184.6 263.84 184.671C263.84 184.948 263.749 185.181 263.568 185.348C263.402 185.519 263.202 185.681 262.997 185.814C262.011 186.5 260.926 187.052 259.764 187.462C258.587 187.881 257.34 188.095 256.035 188.095C254.945 188.095 253.902 187.948 252.887 187.671C251.887 187.395 250.949 187 250.078 186.486C249.211 185.976 248.421 185.362 247.697 184.638C246.978 183.929 246.354 183.129 245.864 182.257C245.345 181.376 244.949 180.424 244.668 179.405C244.392 178.39 244.245 177.329 244.245 176.21C244.245 175.114 244.392 174.048 244.668 173.01C244.949 172 245.345 171.048 245.864 170.171C246.354 169.295 246.978 168.5 247.697 167.79C248.421 167.076 249.211 166.457 250.078 165.948C250.949 165.443 251.887 165.057 252.887 164.776C253.902 164.509 254.945 164.367 256.035 164.367C257.34 164.367 258.564 164.548 259.664 164.886C260.787 165.238 261.83 165.752 262.811 166.443L262.749 166.39C263.011 166.538 263.221 166.733 263.387 166.938C263.549 167.157 263.626 167.41 263.626 167.729C263.626 167.938 263.549 168.171 263.402 168.395L261.797 171.119C261.464 171.714 261.045 172.01 260.564 172.01C260.454 172.01 260.326 171.981 260.164 171.929C260.016 171.871 259.845 171.786 259.649 171.648C259.102 171.3 258.549 171.005 257.93 170.795C257.326 170.567 256.678 170.452 255.987 170.452C255.235 170.452 254.54 170.605 253.902 170.919C253.259 171.214 252.711 171.643 252.249 172.171C251.811 172.7 251.464 173.319 251.207 174.014C250.949 174.714 250.83 175.452 250.83 176.21C250.83 177.014 250.949 177.757 251.207 178.438C251.464 179.143 251.811 179.748 252.249 180.252C252.711 180.752 253.259 181.152 253.902 181.443C254.54 181.733 255.235 181.886 255.987 181.886C256.678 181.886 257.326 181.767 257.93 181.524C258.535 181.281 259.102 180.986 259.649 180.61Z" fill="#7D9BC0"/>
<path d="M269.298 165.055C269.446 164.917 269.612 164.841 269.798 164.803C269.96 164.765 270.127 164.741 270.279 164.741H273.012C273.236 164.741 273.403 164.784 273.569 164.855C273.731 164.936 273.865 165.041 273.965 165.174C274.069 165.303 274.155 165.46 274.231 165.622C274.293 165.784 274.369 165.965 274.427 166.155L274.807 167.727C274.984 167.37 275.274 166.974 275.674 166.579C276.088 166.179 276.588 165.817 277.174 165.493C277.779 165.174 278.469 164.903 279.246 164.693C280.027 164.493 280.903 164.384 281.86 164.384C283.241 164.384 284.465 164.651 285.541 165.174C286.627 165.703 287.536 166.422 288.288 167.336C289.036 168.251 289.607 169.317 290.007 170.541C290.403 171.755 290.598 173.06 290.598 174.451V186.289C290.598 186.741 290.488 187.089 290.303 187.317C290.098 187.56 289.784 187.674 289.346 187.674H285.169C284.65 187.674 284.303 187.579 284.112 187.412C283.898 187.241 283.817 186.889 283.817 186.384V174.627C283.817 174.112 283.703 173.617 283.455 173.155C283.236 172.693 282.922 172.274 282.541 171.927C282.136 171.57 281.717 171.289 281.222 171.084C280.731 170.879 280.25 170.779 279.736 170.779C279.298 170.779 278.865 170.879 278.407 171.07C277.95 171.26 277.541 171.531 277.155 171.87C276.779 172.212 276.446 172.622 276.203 173.074C275.941 173.551 275.793 174.051 275.76 174.593V186.336C275.76 186.541 275.712 186.741 275.641 186.955C275.56 187.16 275.436 187.317 275.288 187.417C275.122 187.517 274.984 187.579 274.846 187.627C274.707 187.655 274.541 187.674 274.369 187.674H270.279C269.765 187.674 269.393 187.541 269.155 187.289C268.941 187.036 268.822 186.708 268.822 186.289V166.084C268.822 165.851 268.865 165.641 268.969 165.446C269.074 165.255 269.222 165.103 269.393 164.998L269.298 165.055Z" fill="#7D9BC0"/>
<path d="M303.25 165.554C303.14 165.392 303.031 165.24 302.878 165.121C302.74 164.988 302.578 164.892 302.412 164.826C302.231 164.759 302.088 164.73 301.936 164.73H297.797C297.345 164.73 297.007 164.868 296.802 165.14C296.574 165.411 296.474 165.749 296.474 166.14V186.292C296.474 187.202 296.907 187.668 297.797 187.668H301.936C302.412 187.668 302.759 187.564 303.031 187.311C303.274 187.083 303.412 186.735 303.412 186.292V166.14C303.412 165.911 303.359 165.716 303.25 165.554ZM303.012 155.926C302.75 155.707 302.412 155.597 302.002 155.597H297.797C297.345 155.597 297.007 155.707 296.802 155.926C296.574 156.13 296.474 156.488 296.474 156.997V160.516C296.474 161.516 296.907 162.016 297.797 162.016H302.002C302.207 162.016 302.412 161.959 302.588 161.864C302.75 161.754 302.902 161.626 303.031 161.483C303.14 161.321 303.24 161.154 303.316 160.983C303.369 160.821 303.412 160.668 303.412 160.516V156.997C303.412 156.488 303.274 156.13 303.012 155.926Z" fill="#7D9BC0"/>
<path d="M323.982 180.61C324.144 180.481 324.301 180.414 324.463 180.381C324.61 180.348 324.729 180.333 324.82 180.333C325.01 180.333 325.191 180.381 325.372 180.462C325.534 180.552 325.72 180.724 325.886 181.005L327.92 184.052C327.972 184.152 328.034 184.267 328.096 184.386C328.139 184.51 328.163 184.6 328.163 184.671C328.163 184.948 328.082 185.181 327.901 185.348C327.725 185.519 327.553 185.681 327.344 185.814C326.344 186.5 325.267 187.052 324.096 187.462C322.92 187.881 321.686 188.095 320.358 188.095C319.277 188.095 318.234 187.948 317.225 187.671C316.239 187.395 315.286 187 314.425 186.486C313.553 185.976 312.758 185.362 312.039 184.638C311.31 183.929 310.705 183.129 310.191 182.257C309.686 181.376 309.291 180.424 309.015 179.405C308.725 178.39 308.586 177.329 308.586 176.21C308.586 175.114 308.725 174.048 309.015 173.01C309.291 172 309.686 171.048 310.191 170.171C310.705 169.295 311.31 168.5 312.039 167.79C312.758 167.076 313.553 166.457 314.425 165.948C315.286 165.443 316.239 165.057 317.225 164.776C318.234 164.509 319.277 164.367 320.358 164.367C321.686 164.367 322.882 164.548 324.005 164.886C325.125 165.238 326.167 165.752 327.134 166.443L327.082 166.39C327.344 166.538 327.567 166.733 327.715 166.938C327.872 167.157 327.953 167.41 327.953 167.729C327.953 167.938 327.886 168.171 327.734 168.395L326.125 171.119C325.782 171.714 325.372 172.01 324.901 172.01C324.786 172.01 324.658 171.981 324.505 171.929C324.344 171.871 324.167 171.786 323.982 171.648C323.453 171.3 322.877 171.005 322.272 170.795C321.658 170.567 321.01 170.452 320.334 170.452C319.567 170.452 318.877 170.605 318.234 170.919C317.596 171.214 317.058 171.643 316.601 172.171C316.144 172.7 315.791 173.319 315.539 174.014C315.286 174.714 315.153 175.452 315.153 176.21C315.153 177.014 315.286 177.757 315.539 178.438C315.791 179.143 316.144 179.748 316.601 180.252C317.058 180.752 317.596 181.152 318.234 181.443C318.877 181.733 319.567 181.886 320.334 181.886C321.01 181.886 321.658 181.767 322.258 181.524C322.863 181.281 323.434 180.986 323.982 180.61Z" fill="#7D9BC0"/>
<path d="M349.035 178.442C348.807 179.147 348.469 179.742 348.026 180.257C347.578 180.757 347.05 181.147 346.407 181.438C345.778 181.733 345.074 181.885 344.293 181.885C343.488 181.885 342.769 181.733 342.121 181.438C341.469 181.147 340.926 180.757 340.469 180.257C340.021 179.742 339.664 179.147 339.426 178.442C339.178 177.757 339.035 177.009 339.035 176.204C339.035 175.447 339.178 174.719 339.426 174.014C339.664 173.319 340.021 172.699 340.469 172.176C340.926 171.647 341.469 171.209 342.121 170.919C342.769 170.614 343.488 170.452 344.293 170.452C345.074 170.452 345.778 170.614 346.407 170.919C347.05 171.209 347.578 171.647 348.026 172.176C348.469 172.699 348.807 173.319 349.035 174.014C349.274 174.719 349.383 175.447 349.383 176.204C349.383 177.009 349.274 177.757 349.035 178.442ZM355.245 171.547C354.626 170.104 353.793 168.857 352.716 167.79C351.65 166.728 350.402 165.88 348.959 165.285C347.526 164.666 345.983 164.371 344.345 164.371C343.235 164.371 342.174 164.514 341.164 164.771C340.131 165.057 339.197 165.447 338.307 165.942C337.431 166.457 336.635 167.076 335.921 167.79C335.193 168.495 334.583 169.299 334.074 170.171C333.564 171.047 333.174 172.004 332.878 173.014C332.597 174.042 332.469 175.119 332.469 176.204C332.469 177.323 332.597 178.385 332.878 179.409C333.174 180.428 333.564 181.371 334.074 182.261C334.583 183.133 335.193 183.938 335.921 184.642C336.635 185.371 337.431 185.976 338.307 186.485C339.197 186.999 340.131 187.399 341.164 187.671C342.174 187.952 343.235 188.095 344.345 188.095C345.44 188.095 346.493 187.952 347.493 187.671C348.502 187.399 349.459 186.999 350.316 186.485C351.207 185.976 352.012 185.371 352.716 184.642C353.431 183.938 354.05 183.133 354.564 182.261C355.074 181.371 355.483 180.428 355.754 179.409C356.04 178.385 356.178 177.323 356.178 176.204C356.178 174.542 355.874 172.99 355.245 171.547Z" fill="#7D9BC0"/>
<path d="M383.138 177.541C383.367 176.912 383.605 176.27 383.843 175.555C384.072 174.86 384.31 174.131 384.529 173.412C384.757 172.689 384.986 171.993 385.224 171.265C385.462 170.551 385.691 169.898 385.929 169.279L388.686 177.541H383.138ZM399.024 186.855L389.543 162.393L389.086 161.374C389.014 161.265 388.905 161.155 388.762 161.027C388.61 160.898 388.438 160.841 388.229 160.841H383.605C383.505 160.841 383.41 160.865 383.291 160.898C383.191 160.951 383.095 161.003 383.01 161.07C382.9 161.146 382.824 161.222 382.748 161.308C382.672 161.398 382.638 161.484 382.638 161.546L372.824 186.955C372.724 187.184 372.748 187.365 372.9 187.498C373.053 187.603 373.238 187.684 373.462 187.684H378.795C379.262 187.684 379.557 187.455 379.719 186.998C379.957 186.389 380.186 185.784 380.4 185.184C380.643 184.565 380.881 183.955 381.119 183.336H390.695C390.933 183.955 391.172 184.565 391.391 185.184C391.629 185.784 391.867 186.389 392.095 186.998C392.181 187.246 392.3 187.412 392.453 187.517C392.595 187.627 392.824 187.684 393.095 187.684H398.272C398.61 187.684 398.829 187.603 398.957 187.441C399.1 187.303 399.1 187.108 399.024 186.855Z" fill="#7D9BC0"/>
<path d="M399.104 166.51C398.861 166.019 398.813 165.6 398.975 165.248C399.123 164.905 399.485 164.724 400.051 164.724H404.67C404.994 164.724 405.261 164.805 405.489 164.977C405.727 165.143 405.889 165.386 405.989 165.705C406.194 166.343 406.418 167.058 406.666 167.853C406.918 168.643 407.18 169.462 407.451 170.296C407.708 171.134 407.985 171.967 408.256 172.8C408.513 173.615 408.751 174.381 408.975 175.067C409.213 175.772 409.394 176.377 409.575 176.877C409.761 177.391 409.889 177.748 409.961 177.972L413.794 165.705C413.956 165.315 414.132 165.058 414.323 164.919C414.532 164.791 414.808 164.724 415.161 164.724H419.927C420.266 164.724 420.542 164.767 420.713 164.848C420.894 164.939 421.008 165.058 421.08 165.2C421.132 165.348 421.151 165.51 421.118 165.7C421.08 165.881 421.008 166.081 420.946 166.277L412.327 186.891C412.199 187.124 412.046 187.3 411.866 187.448C411.68 187.605 411.413 187.672 411.046 187.672H408.899C408.418 187.672 408.075 187.61 407.889 187.462C407.689 187.334 407.537 187.139 407.432 186.891L399.104 166.51Z" fill="#7D9BC0"/>
<path d="M440.509 178.442C440.214 179.147 439.814 179.742 439.304 180.257C438.785 180.757 438.185 181.147 437.49 181.438C436.804 181.733 436.056 181.885 435.242 181.885C434.461 181.885 433.742 181.733 433.114 181.438C432.461 181.147 431.899 180.757 431.442 180.257C430.999 179.742 430.637 179.147 430.39 178.442C430.142 177.757 430.033 177.009 430.033 176.204C430.033 175.447 430.142 174.719 430.39 174.014C430.637 173.319 430.999 172.699 431.442 172.176C431.899 171.647 432.461 171.209 433.114 170.919C433.742 170.614 434.461 170.452 435.242 170.452C436.056 170.452 436.804 170.614 437.49 170.919C438.185 171.209 438.785 171.647 439.304 172.176C439.814 172.699 440.214 173.319 440.509 174.014C440.799 174.719 440.933 175.447 440.933 176.204C440.933 177.009 440.799 177.757 440.509 178.442ZM447.709 165.39C447.633 165.219 447.523 165.076 447.361 164.947C447.218 164.804 447.066 164.728 446.88 164.695C446.709 164.652 446.547 164.642 446.414 164.642H443.723C443.471 164.642 443.299 164.652 443.171 164.676C443.037 164.709 442.918 164.771 442.833 164.857C442.733 164.957 442.647 165.099 442.571 165.285C442.485 165.457 442.409 165.704 442.266 166.023L441.756 167.652C441.433 167.185 441.052 166.747 440.618 166.347C440.185 165.933 439.694 165.585 439.152 165.304C438.618 165.014 438.033 164.785 437.394 164.619C436.742 164.447 436.056 164.371 435.299 164.371C433.656 164.371 432.128 164.666 430.694 165.285C429.261 165.88 428.014 166.728 426.956 167.79C425.894 168.857 425.047 170.104 424.442 171.547C423.823 172.99 423.528 174.542 423.528 176.204C423.528 177.323 423.656 178.385 423.928 179.409C424.223 180.428 424.604 181.371 425.123 182.261C425.633 183.133 426.242 183.938 426.956 184.642C427.652 185.371 428.456 185.976 429.337 186.485C430.204 186.999 431.137 187.399 432.147 187.671C433.156 187.952 434.199 188.095 435.299 188.095C435.914 188.095 436.514 188.019 437.075 187.866C437.652 187.704 438.185 187.509 438.685 187.271C439.185 187.019 439.652 186.738 440.061 186.423C440.475 186.119 440.847 185.79 441.161 185.476L441.399 186.29C441.475 186.485 441.552 186.685 441.628 186.847C441.68 187.019 441.771 187.171 441.866 187.29C441.966 187.409 442.085 187.499 442.247 187.571C442.409 187.638 442.594 187.671 442.856 187.671H446.414C446.547 187.671 446.709 187.661 446.88 187.628C447.066 187.585 447.218 187.499 447.361 187.366C447.523 187.247 447.633 187.104 447.709 186.923C447.785 186.738 447.837 186.542 447.837 186.333V165.976C447.837 165.752 447.785 165.557 447.709 165.39Z" fill="#7D9BC0"/>
<path d="M454.182 165.055C454.339 164.917 454.501 164.841 454.682 164.803C454.849 164.765 455.011 164.741 455.177 164.741H457.906C458.12 164.741 458.311 164.784 458.473 164.855C458.616 164.936 458.749 165.041 458.863 165.174C458.968 165.303 459.058 165.46 459.116 165.622C459.192 165.784 459.244 165.965 459.311 166.155L459.692 167.727C459.868 167.37 460.158 166.974 460.573 166.579C460.963 166.179 461.473 165.817 462.077 165.493C462.663 165.174 463.349 164.903 464.135 164.693C464.916 164.493 465.797 164.384 466.763 164.384C468.125 164.384 469.354 164.651 470.435 165.174C471.511 165.703 472.42 166.422 473.182 167.336C473.93 168.251 474.506 169.317 474.892 170.541C475.287 171.755 475.482 173.06 475.482 174.451V186.289C475.482 186.741 475.387 187.089 475.187 187.317C474.992 187.56 474.663 187.674 474.244 187.674H470.068C469.539 187.674 469.187 187.579 469.001 187.412C468.801 187.241 468.706 186.889 468.706 186.384V174.627C468.706 174.112 468.582 173.617 468.349 173.155C468.111 172.693 467.806 172.274 467.42 171.927C467.044 171.57 466.601 171.289 466.116 171.084C465.625 170.879 465.125 170.779 464.625 170.779C464.187 170.779 463.744 170.879 463.292 171.07C462.849 171.26 462.425 171.531 462.039 171.87C461.673 172.212 461.349 172.622 461.087 173.074C460.835 173.551 460.687 174.051 460.644 174.593V186.336C460.644 186.541 460.611 186.741 460.525 186.955C460.454 187.16 460.339 187.317 460.173 187.417C460.03 187.517 459.882 187.579 459.73 187.627C459.601 187.655 459.439 187.674 459.263 187.674H455.177C454.663 187.674 454.277 187.541 454.058 187.289C453.82 187.036 453.706 186.708 453.706 186.289V166.084C453.706 165.851 453.763 165.641 453.873 165.446C453.968 165.255 454.101 165.103 454.297 164.998L454.182 165.055Z" fill="#7D9BC0"/>
<path d="M481.154 166.039C481.154 165.63 481.283 165.282 481.53 165.03C481.802 164.758 482.149 164.639 482.592 164.639H497.811C498.192 164.639 498.54 164.758 498.835 164.991C499.13 165.225 499.273 165.572 499.273 166.039V169.187C499.273 169.296 499.264 169.425 499.249 169.572C499.235 169.71 499.159 169.858 499.054 170.006L489.102 181.82H498.03C498.449 181.82 498.802 181.939 499.073 182.168C499.326 182.406 499.454 182.777 499.454 183.287V186.125C499.454 186.306 499.426 186.482 499.349 186.677C499.288 186.863 499.188 187.02 499.073 187.168C498.945 187.33 498.797 187.449 498.616 187.544C498.445 187.625 498.245 187.672 498.03 187.672H482.097C481.902 187.672 481.711 187.625 481.53 187.544C481.368 187.449 481.211 187.33 481.068 187.187C480.926 187.034 480.83 186.872 480.745 186.687C480.668 186.501 480.63 186.31 480.63 186.125V183.62C480.63 183.449 480.635 183.287 480.668 183.139C480.702 182.982 480.783 182.82 480.926 182.649C481.745 181.749 482.592 180.796 483.468 179.749C484.349 178.706 485.254 177.663 486.145 176.587C487.059 175.51 487.959 174.449 488.854 173.406C489.735 172.344 490.592 171.382 491.397 170.482H482.592C482.149 170.482 481.802 170.353 481.53 170.106C481.283 169.872 481.154 169.491 481.154 168.977V166.039Z" fill="#7D9BC0"/>
<path d="M519.844 178.442C519.549 179.147 519.159 179.742 518.639 180.257C518.116 180.757 517.511 181.147 516.835 181.438C516.139 181.733 515.392 181.885 514.578 181.885C513.797 181.885 513.078 181.733 512.449 181.438C511.797 181.147 511.244 180.757 510.787 180.257C510.335 179.742 509.987 179.147 509.725 178.442C509.473 177.757 509.368 177.009 509.368 176.204C509.368 175.447 509.473 174.719 509.725 174.014C509.987 173.319 510.335 172.699 510.787 172.176C511.244 171.647 511.797 171.209 512.449 170.919C513.078 170.614 513.797 170.452 514.578 170.452C515.392 170.452 516.139 170.614 516.835 170.919C517.511 171.209 518.116 171.647 518.639 172.176C519.159 172.699 519.549 173.319 519.844 174.014C520.135 174.719 520.268 175.447 520.268 176.204C520.268 177.009 520.135 177.757 519.844 178.442ZM527.054 165.39C526.978 165.219 526.859 165.076 526.682 164.947C526.554 164.804 526.392 164.728 526.23 164.695C526.054 164.652 525.882 164.642 525.749 164.642H523.068C522.806 164.642 522.635 164.652 522.501 164.676C522.373 164.709 522.254 164.771 522.168 164.857C522.068 164.957 521.992 165.099 521.906 165.285C521.83 165.457 521.744 165.704 521.616 166.023L521.092 167.652C520.768 167.185 520.387 166.747 519.954 166.347C519.516 165.933 519.03 165.585 518.487 165.304C517.963 165.014 517.378 164.785 516.73 164.619C516.078 164.447 515.392 164.371 514.63 164.371C512.992 164.371 511.473 164.666 510.039 165.285C508.597 165.88 507.349 166.728 506.292 167.79C505.23 168.857 504.392 170.104 503.773 171.547C503.159 172.99 502.863 174.542 502.863 176.204C502.863 177.323 502.992 178.385 503.273 179.409C503.559 180.428 503.939 181.371 504.459 182.261C504.968 183.133 505.587 183.938 506.292 184.642C507.001 185.371 507.792 185.976 508.673 186.485C509.539 186.999 510.473 187.399 511.482 187.671C512.492 187.952 513.535 188.095 514.63 188.095C515.263 188.095 515.849 188.019 516.411 187.866C516.987 187.704 517.511 187.509 518.02 187.271C518.52 187.019 518.997 186.738 519.397 186.423C519.82 186.119 520.192 185.79 520.497 185.476L520.735 186.29C520.811 186.485 520.887 186.685 520.963 186.847C521.016 187.019 521.101 187.171 521.192 187.29C521.297 187.409 521.416 187.499 521.582 187.571C521.744 187.638 521.93 187.671 522.201 187.671H525.749C525.882 187.671 526.054 187.661 526.23 187.628C526.392 187.585 526.554 187.499 526.682 187.366C526.859 187.247 526.978 187.104 527.054 186.923C527.13 186.738 527.163 186.542 527.163 186.333V165.976C527.163 165.752 527.13 165.557 527.054 165.39Z" fill="#7D9BC0"/>
<path d="M549.746 176.466C549.703 177.228 549.541 177.942 549.222 178.604C548.922 179.266 548.508 179.842 548.008 180.333C547.508 180.819 546.903 181.199 546.227 181.471C545.555 181.752 544.817 181.885 544.046 181.885C543.274 181.885 542.56 181.733 541.908 181.438C541.265 181.147 540.722 180.757 540.265 180.257C539.798 179.742 539.451 179.147 539.193 178.442C538.955 177.757 538.832 177.009 538.832 176.204C538.832 175.447 538.955 174.719 539.193 174.014C539.451 173.319 539.798 172.699 540.265 172.176C540.722 171.647 541.265 171.209 541.908 170.919C542.56 170.614 543.274 170.452 544.046 170.452C544.86 170.452 545.608 170.614 546.303 170.919C546.998 171.209 547.608 171.647 548.117 172.176C548.627 172.699 549.027 173.319 549.312 174.014C549.593 174.719 549.746 175.447 549.746 176.204V176.466ZM556.022 158.714C555.932 158.542 555.817 158.399 555.674 158.271C555.522 158.152 555.36 158.061 555.193 157.985C555.022 157.923 554.836 157.89 554.698 157.89H550.627C550.16 157.89 549.798 158.028 549.56 158.29C549.322 158.561 549.212 158.876 549.212 159.28V166.804C548.874 166.442 548.517 166.119 548.136 165.814C547.77 165.509 547.346 165.252 546.889 165.042C546.455 164.804 545.955 164.652 545.393 164.533C544.851 164.423 544.251 164.371 543.589 164.371C541.941 164.371 540.441 164.666 539.051 165.285C537.684 165.88 536.489 166.728 535.503 167.79C534.503 168.857 533.717 170.104 533.165 171.547C532.603 172.99 532.332 174.542 532.332 176.204C532.332 177.89 532.603 179.442 533.165 180.885C533.717 182.328 534.503 183.576 535.503 184.642C536.489 185.704 537.684 186.561 539.051 187.171C540.441 187.79 541.941 188.095 543.589 188.095C544.198 188.095 544.803 188.019 545.36 187.857C545.922 187.695 546.455 187.499 546.932 187.238C547.422 186.985 547.879 186.704 548.279 186.38C548.703 186.066 549.074 185.738 549.408 185.414L549.746 186.29C549.855 186.519 549.932 186.714 550.008 186.89C550.084 187.061 550.17 187.204 550.255 187.314C550.355 187.433 550.46 187.528 550.603 187.585C550.722 187.638 550.898 187.671 551.155 187.671H554.698C555.674 187.671 556.151 187.204 556.151 186.29V159.28C556.151 159.071 556.117 158.876 556.022 158.714Z" fill="#7D9BC0"/>
<path d="M578.387 178.442C578.168 179.147 577.82 179.742 577.377 180.257C576.93 180.757 576.387 181.147 575.758 181.438C575.13 181.733 574.425 181.885 573.654 181.885C572.839 181.885 572.12 181.733 571.473 181.438C570.83 181.147 570.277 180.757 569.83 180.257C569.373 179.742 569.015 179.147 568.787 178.442C568.53 177.757 568.396 177.009 568.396 176.204C568.396 175.447 568.53 174.719 568.787 174.014C569.015 173.319 569.373 172.699 569.83 172.176C570.277 171.647 570.83 171.209 571.473 170.919C572.12 170.614 572.839 170.452 573.654 170.452C574.425 170.452 575.13 170.614 575.758 170.919C576.387 171.209 576.93 171.647 577.377 172.176C577.82 172.699 578.168 173.319 578.387 174.014C578.625 174.719 578.734 175.447 578.734 176.204C578.734 177.009 578.625 177.757 578.387 178.442ZM584.596 171.547C583.977 170.104 583.144 168.857 582.068 167.79C581.015 166.728 579.763 165.88 578.32 165.285C576.877 164.666 575.334 164.371 573.696 164.371C572.577 164.371 571.534 164.514 570.515 164.771C569.496 165.057 568.549 165.447 567.658 165.942C566.782 166.457 565.987 167.076 565.273 167.79C564.544 168.495 563.934 169.299 563.425 170.171C562.915 171.047 562.525 172.004 562.244 173.014C561.939 174.042 561.815 175.119 561.815 176.204C561.815 177.323 561.939 178.385 562.244 179.409C562.525 180.428 562.915 181.371 563.425 182.261C563.934 183.133 564.544 183.938 565.273 184.642C565.987 185.371 566.782 185.976 567.658 186.485C568.549 186.999 569.496 187.399 570.515 187.671C571.534 187.952 572.577 188.095 573.696 188.095C574.792 188.095 575.858 187.952 576.844 187.671C577.854 187.399 578.801 186.999 579.668 186.485C580.558 185.976 581.363 185.371 582.068 184.642C582.796 183.938 583.401 183.133 583.925 182.261C584.425 181.371 584.834 180.428 585.106 179.409C585.387 178.385 585.544 177.323 585.544 176.204C585.544 174.542 585.239 172.99 584.596 171.547Z" fill="#7D9BC0"/>
<path d="M75.1547 117.305C71.4261 120.457 66.5737 122.019 60.5309 122.019H30.3452V87.8762H60.7261C66.6309 87.8762 71.4261 89.4666 75.1547 92.6047C78.8404 95.7428 80.6976 99.8381 80.6976 104.857C80.6976 110.014 78.8404 114.167 75.1547 117.305ZM30.3452 32.4333H55.0547C60.4642 32.4333 64.8071 33.8524 68.0833 36.6857C71.3452 39.5095 72.969 43.1904 72.969 47.7143C72.969 52.2381 71.3118 55.9238 67.9928 58.7428C64.6595 61.5809 60.2261 62.9857 54.6738 62.9857H30.3452V32.4333ZM105.136 85.3381C100.536 79.5 94.2214 75.319 86.1833 72.7905C91.9547 69.6619 96.3976 65.6619 99.4833 60.819C102.555 55.9905 104.093 50.5381 104.093 44.5095C104.093 37.219 102.45 30.7666 99.188 25.1809C95.9214 19.5809 91.2976 15.2476 85.3214 12.1666C79.3595 9.09521 72.5357 7.54284 64.8738 7.54284H-0.00244141V147.095H65.0452C74.3499 147.095 82.5595 145.381 89.6642 141.914C96.7833 138.467 102.269 133.629 106.169 127.395C110.069 121.181 112.017 114.029 112.017 105.99C112.017 98.0666 109.707 91.1762 105.136 85.3381Z" fill="#009BDF"/>
<path d="M131.633 -0.000154289H160.848V147.1H131.633V-0.000154289Z" fill="#009BDF"/>
<path d="M252.89 134.276C249.499 139.062 245.223 142.705 240.061 145.21C234.904 147.733 229.123 148.99 222.718 148.99C215.17 148.99 208.499 147.319 202.718 143.981C196.932 140.662 192.437 135.981 189.242 129.943C186.032 123.91 184.423 116.929 184.423 109.005V44.7H213.661V104.481C213.661 110.271 215.456 114.952 219.032 118.529C222.623 122.119 227.309 123.91 233.085 123.91C238.737 123.91 243.356 122.119 246.947 118.529C250.523 114.952 252.323 110.271 252.323 104.481V44.7H281.561V147.105H260.618L252.89 134.276Z" fill="#009BDF"/>
<path d="M331.714 86.5623C331.838 81.167 333.719 76.348 337.381 72.1337C341.019 67.9289 346.043 65.8194 352.471 65.8194C359.247 65.8194 364.438 67.9289 368.033 72.1337C371.605 76.348 373.395 81.167 373.395 86.5623H331.714ZM398.776 69.2194C394.795 61.2956 388.824 54.9147 380.843 50.0861C372.862 45.2337 363.271 42.8051 352.086 42.8051C342.028 42.8051 333.095 45.0766 325.3 49.5956C317.5 54.1289 311.433 60.4813 307.114 68.6432C302.776 76.8242 300.609 86.2432 300.609 96.9337C300.609 107.124 302.867 116.181 307.4 124.096C311.924 132.005 318.305 138.138 326.533 142.481C334.776 146.824 344.286 148.986 355.1 148.986C363.657 148.986 371.819 147.038 379.619 143.148C387.419 139.253 393.767 133.786 398.662 126.738L376.038 115.41C374.281 117.815 371.447 120.162 367.557 122.496C363.657 124.819 359.371 125.977 354.714 125.977C349.195 125.977 344.738 124.877 341.338 122.691C337.947 120.491 335.524 117.872 334.071 114.858C332.619 111.838 331.838 108.948 331.714 106.186H403.39L404.147 94.4861C404.509 85.567 402.733 77.1432 398.776 69.2194Z" fill="#009BDF"/>
<path d="M432.044 144.835C425.387 142.073 420.797 139.301 418.278 136.54L429.225 118.816C435.883 123.092 444.373 125.473 454.683 125.973C458.83 126.106 461.811 125.416 463.649 123.911C465.464 122.401 466.378 120.573 466.378 118.43C466.378 116.668 465.749 115.04 464.487 113.53C463.23 112.021 461.278 110.83 458.64 109.959L447.13 106.182C440.592 104.044 435.406 101.992 431.583 100.049C427.749 98.0919 424.602 95.3729 422.14 91.8491C419.706 88.33 418.483 83.6729 418.483 77.8967C418.483 72.111 419.859 66.5443 422.621 61.1967C425.387 55.8491 429.697 51.4586 435.54 48.0015C441.387 44.5443 448.711 42.8062 457.511 42.8062C471.968 42.8062 484.225 46.33 494.283 53.3729L482.035 72.4158C474.725 68.0253 467.259 65.8205 459.578 65.8205C455.821 65.8205 452.944 66.4824 451.006 67.7967C449.049 69.1253 448.083 70.911 448.083 73.1681C448.083 75.1824 448.864 76.8919 450.435 78.2681C452.011 79.6538 454.497 80.8491 457.887 81.8538L469.016 85.43C478.311 88.5777 485.164 92.5015 489.573 97.23C493.973 101.93 496.173 108.568 496.173 117.116C496.173 123.535 494.387 129.154 490.797 134.001C487.216 138.844 482.311 142.544 476.092 145.121C469.859 147.701 462.783 148.992 454.868 148.992C446.321 148.992 438.711 147.601 432.044 144.835Z" fill="#009BDF"/>
<path d="M592.532 147.099L559.532 106.557L561.228 104.48L545.208 121.08V147.099H515.785V-0.000636923H545.208V83.3613L582.166 44.8851H619.318L578.023 87.3184L629.513 147.099H592.532Z" fill="#009BDF"/>
<path d="M680.138 182.464C674.419 187.807 666.653 190.478 656.848 190.478C650.176 190.478 644.843 189.473 640.819 187.454L643.843 163.702C646.1 164.826 648.8 165.392 651.953 165.392C655.457 165.392 658.334 164.454 660.524 162.559C662.719 160.678 665.015 157.411 667.424 152.764L671.381 144.464L628.376 44.6971H660.253L686.462 112.973L710.405 44.6971H742.467L696.067 156.535C691.172 168.473 685.872 177.116 680.138 182.464Z" fill="#009BDF"/>
<path d="M934.752 118.239C933.028 118.239 931.628 116.839 931.628 115.12C931.628 113.401 933.028 112.001 934.752 112.001C936.467 112.001 937.867 113.401 937.867 115.12C937.867 116.839 936.467 118.239 934.752 118.239ZM934.752 102.829C927.967 102.829 922.462 108.339 922.462 115.12C922.462 117.391 923.228 119.406 924.305 121.225C923.995 121.663 923.724 122.025 923.381 122.51C921.8 124.972 919.609 127.087 917.119 129.644C915.881 130.934 914.557 132.31 913.152 133.753C911.538 135.053 909.838 136.42 908.071 137.853C904.671 140.939 900.371 143.406 895.895 146.196C891.438 149.001 886.205 151.034 880.967 153.429C875.457 155.106 869.886 157.506 863.824 158.41C860.833 158.958 857.848 159.782 854.771 160.125L845.486 160.92C842.376 161.339 839.471 161.163 836.167 161.072C833.033 160.887 829.748 161.12 826.776 160.591C820.738 159.839 814.757 159.067 809.071 157.406C803.262 156.267 798.081 153.796 792.938 152.077C788.162 149.591 783.328 147.687 779.419 145.006C775.452 142.401 771.667 140.196 768.824 137.567C765.895 135.067 763.109 133.101 761.309 130.958C757.833 127.282 755.705 125.044 755.343 124.658C755.676 125.063 757.69 127.425 760.967 131.287C762.657 133.548 765.333 135.653 768.171 138.344C770.919 141.163 774.59 143.591 778.476 146.453C782.319 149.396 787.1 151.596 791.871 154.391C797.005 156.444 802.209 159.253 808.109 160.744C813.828 162.772 820.048 163.939 826.424 165.058C829.609 165.763 832.714 165.696 835.9 166.048C838.938 166.306 842.381 166.677 845.628 166.425L855.409 166.11C858.652 165.925 861.848 165.244 865.038 164.829C871.481 164.196 877.505 162.029 883.5 160.529C889.224 158.296 894.948 156.372 899.928 153.629C904.914 150.896 909.738 148.434 913.648 145.287C915.681 143.815 917.619 142.401 919.462 141.067C921.224 139.558 922.814 137.977 924.352 136.553C927.428 133.672 930.148 131.134 931.719 128.939C932.286 128.263 932.738 127.701 933.224 127.11C933.738 127.182 934.205 127.415 934.752 127.415C941.519 127.415 947.048 121.901 947.048 115.12C947.048 108.339 941.519 102.829 934.752 102.829Z" fill="#7D9BC0"/>
<path d="M961.018 112.797C959.28 112.797 957.875 111.388 957.875 109.669C957.875 107.954 959.28 106.554 961.018 106.554C962.732 106.554 964.137 107.954 964.137 109.669C964.137 111.388 962.732 112.797 961.018 112.797ZM961.018 97.378C954.228 97.378 948.699 102.892 948.699 109.669C948.699 112.449 949.804 114.902 951.361 116.954C950.666 118.097 949.87 119.388 948.932 120.902C947.375 123.826 945.032 126.483 942.432 129.635C941.104 131.221 939.789 132.964 938.251 134.707C936.523 136.345 934.704 138.064 932.799 139.854C929.204 143.688 924.494 146.892 919.651 150.478C914.813 154.078 909.042 156.873 903.28 160.083C897.128 162.497 891.009 165.716 884.189 167.292C880.813 168.192 877.48 169.402 874.004 170.064L863.504 171.807C859.994 172.559 856.651 172.616 852.904 172.826C849.323 172.888 845.623 173.445 842.189 173.121C835.232 172.811 828.351 172.454 821.732 171.073C815.028 170.307 808.904 167.959 802.909 166.469C797.247 164.073 791.575 162.354 786.88 159.654C782.147 157.054 777.647 154.888 774.175 152.154C770.623 149.564 767.27 147.592 765.047 145.311C760.747 141.445 758.118 139.092 757.689 138.711C758.128 139.14 760.628 141.621 764.732 145.669C766.87 148.064 770.113 150.202 773.589 152.978C776.97 155.911 781.394 158.302 786.075 161.169C790.709 164.126 796.356 166.159 802.037 168.873C808.042 170.697 814.228 173.373 821.056 174.492C827.732 176.221 834.88 176.949 842.199 177.597C845.875 178.097 849.413 177.702 853.037 177.802C856.532 177.792 860.461 177.878 864.104 177.278L875.137 175.978C878.789 175.459 882.337 174.369 885.904 173.592C893.147 172.249 899.742 169.216 906.38 166.94C912.628 163.864 918.918 161.14 924.275 157.554C929.647 153.978 934.866 150.735 938.975 146.802C941.113 144.945 943.18 143.164 945.123 141.483C946.961 139.607 948.604 137.678 950.204 135.926C953.385 132.402 956.199 129.288 957.785 126.635C959.075 124.73 960.104 123.24 960.956 121.959C960.989 121.959 960.994 121.964 961.018 121.964C967.799 121.964 973.313 116.454 973.313 109.669C973.313 102.892 967.799 97.378 961.018 97.378Z" fill="#5FB4E5"/>
<path d="M987.706 109.517C985.987 109.517 984.583 108.117 984.583 106.398C984.583 104.675 985.987 103.279 987.706 103.279C989.426 103.279 990.83 104.675 990.83 106.398C990.83 108.117 989.426 109.517 987.706 109.517ZM987.706 94.0936C980.93 94.0936 975.406 99.6222 975.406 106.398C975.406 109.403 976.621 112.07 978.416 114.198C977.711 115.575 976.906 117.127 975.94 119.003C974.449 122.365 972.073 125.527 969.411 129.265C968.073 131.146 966.745 133.203 965.164 135.279C963.378 137.251 961.497 139.313 959.54 141.47C955.83 146.027 950.868 149.994 945.773 154.379C943.335 156.713 940.368 158.517 937.435 160.498C934.459 162.413 931.549 164.603 928.354 166.427C921.721 169.608 915.187 173.708 907.73 176.027C904.068 177.284 900.464 178.908 896.659 179.936L885.126 182.746C881.297 183.87 877.545 184.222 873.435 184.746C869.468 185.122 865.426 186.051 861.573 185.975C857.678 186.051 853.826 186.122 850.016 186.194C846.192 186.275 842.411 185.632 838.687 185.394C831.173 185.103 824.192 183.013 817.406 181.851C810.911 179.656 804.492 178.217 799.059 175.608C793.597 173.117 788.421 171.089 784.345 168.346C780.192 165.765 776.302 163.846 773.649 161.503C768.597 157.598 765.492 155.203 764.954 154.789C765.473 155.232 768.478 157.76 773.368 161.884C775.949 164.36 779.735 166.432 783.83 169.203C787.83 172.16 792.94 174.417 798.368 177.184C803.768 180.051 810.197 181.803 816.716 184.308C823.545 185.794 830.611 188.222 838.264 188.856C842.073 189.256 845.906 190.075 849.868 190.165C853.845 190.256 857.883 190.346 861.935 190.432C866.04 190.66 869.93 189.927 873.959 189.698C877.849 189.379 882.164 189.141 886.159 188.156L898.245 185.751C902.235 184.846 906.045 183.341 909.94 182.16C917.816 180.065 924.849 176.108 931.968 173.022C935.421 171.246 938.592 169.089 941.806 167.189C945.002 165.232 948.235 163.432 950.935 161.079C956.545 156.66 962.026 152.617 966.216 147.913C968.416 145.679 970.535 143.541 972.554 141.513C974.402 139.284 976.045 137.013 977.649 134.946C980.835 130.784 983.678 127.127 985.192 124.041C986.468 121.803 987.468 120.06 988.326 118.575C994.802 118.232 1000 112.965 1000 106.398C1000 99.6222 994.492 94.0936 987.706 94.0936Z" fill="#009BDF"/>
<path d="M887.395 16.9004C887.281 17.5576 886.648 18.0052 885.986 17.8909C885.314 17.7718 884.876 17.1433 884.995 16.4814C885.11 15.8147 885.738 15.3718 886.405 15.4861C887.067 15.6004 887.514 16.229 887.395 16.9004ZM882 15.9576C881.886 16.6242 881.253 17.0671 880.586 16.9528L858.795 13.1623C858.134 13.0433 857.686 12.4147 857.795 11.7528C857.905 11.1528 858.424 10.7338 859.005 10.7338C859.076 10.7338 859.143 10.7433 859.214 10.7528L881.01 14.548C881.672 14.6623 882.114 15.2957 882 15.9576ZM901.857 10.1576L844.953 0.28137C834.591 -1.51387 824.691 5.46232 822.895 15.8385L800.295 146.062C802.538 146.886 804.824 147.662 807.234 148.258L829.991 17.0718C831.119 10.6099 837.262 6.27184 843.719 7.39565L849.734 8.43851L849.553 9.40994C848.986 12.7004 851.214 15.8242 854.505 16.4004L887.443 22.1147C890.734 22.6766 893.872 20.4861 894.434 17.1957L894.619 16.2195L900.619 17.2718C907.076 18.3814 911.41 24.5337 910.291 30.9957L891.386 139.953C892.957 139.196 894.467 138.367 895.895 137.472C897.134 136.71 898.334 135.962 899.519 135.215L917.395 32.229C919.191 21.8528 912.234 11.9528 901.857 10.1576Z" fill="#009BDF"/>
</g>
</svg>
