<?xml version="1.0" encoding="utf-8"?>
<!-- Generator: Adobe Illustrator 26.3.1, SVG Export Plug-In . SVG Version: 6.00 Build 0)  -->
<svg version="1.1" id="Capa_1" xmlns="http://www.w3.org/2000/svg" xmlns:xlink="http://www.w3.org/1999/xlink" x="0px" y="0px"
	 viewBox="0 0 32 32" style="enable-background:new 0 0 32 32;" xml:space="preserve">
<style type="text/css">
	.st0{fill:#7C9AC0;stroke:#1698D6;stroke-miterlimit:10;}
	.st1{fill:#5EB3E4;stroke:#1698D6;stroke-miterlimit:10;}
	.st2{fill:#009ADE;stroke:#1698D6;stroke-miterlimit:10;}
</style>
<path class="st0" d="M23.12,16.95c-0.85,0-1.53,0.69-1.53,1.53c0,0.28,0.1,0.53,0.23,0.76c-0.04,0.05-0.07,0.1-0.12,0.16
	c-0.2,0.31-0.47,0.57-0.78,0.89c-0.15,0.16-0.32,0.33-0.49,0.51c-0.2,0.16-0.41,0.33-0.63,0.51c-0.42,0.38-0.96,0.69-1.52,1.04
	c-0.56,0.35-1.21,0.6-1.86,0.9c-0.69,0.21-1.38,0.51-2.14,0.62c-0.37,0.07-0.75,0.17-1.13,0.21l-1.16,0.1
	c-0.39,0.05-0.75,0.03-1.16,0.02c-0.39-0.02-0.8,0.01-1.17-0.06c-0.75-0.09-1.5-0.19-2.21-0.4c-0.72-0.14-1.37-0.45-2.01-0.66
	c-0.6-0.31-1.2-0.55-1.69-0.88c-0.49-0.32-0.97-0.6-1.32-0.93c-0.36-0.31-0.71-0.56-0.94-0.82c-0.43-0.46-0.7-0.74-0.74-0.78
	c0.04,0.05,0.29,0.34,0.7,0.83c0.21,0.28,0.54,0.54,0.9,0.88c0.34,0.35,0.8,0.65,1.28,1.01c0.48,0.37,1.08,0.64,1.67,0.99
	c0.64,0.26,1.29,0.61,2.02,0.79c0.71,0.25,1.49,0.4,2.28,0.54c0.4,0.09,0.78,0.08,1.18,0.12c0.38,0.03,0.81,0.08,1.21,0.05
	l1.22-0.04c0.4-0.02,0.8-0.11,1.2-0.16c0.8-0.08,1.55-0.35,2.3-0.54c0.71-0.28,1.43-0.52,2.05-0.86c0.62-0.34,1.22-0.65,1.71-1.04
	c0.25-0.18,0.5-0.36,0.72-0.53c0.22-0.19,0.42-0.39,0.61-0.56c0.38-0.36,0.72-0.68,0.92-0.95c0.07-0.08,0.13-0.15,0.19-0.23
	c0.06,0.01,0.12,0.04,0.19,0.04c0.84,0,1.53-0.69,1.53-1.53C24.65,17.63,23.96,16.95,23.12,16.95z M23.12,18.87
	c-0.22,0-0.39-0.17-0.39-0.39c0-0.21,0.17-0.39,0.39-0.39c0.21,0,0.39,0.17,0.39,0.39C23.5,18.69,23.33,18.87,23.12,18.87z"/>
<path class="st1" d="M26.39,16.27c-0.85,0-1.54,0.69-1.54,1.53c0,0.35,0.14,0.65,0.33,0.91c-0.09,0.14-0.19,0.3-0.3,0.49
	c-0.19,0.36-0.49,0.7-0.81,1.09c-0.17,0.2-0.33,0.41-0.52,0.63c-0.22,0.2-0.44,0.42-0.68,0.64c-0.45,0.48-1.04,0.88-1.64,1.32
	c-0.6,0.45-1.32,0.8-2.04,1.2c-0.77,0.3-1.53,0.7-2.38,0.9c-0.42,0.11-0.84,0.26-1.27,0.35l-1.31,0.22
	c-0.44,0.09-0.85,0.1-1.32,0.13c-0.45,0.01-0.91,0.08-1.34,0.04c-0.87-0.04-1.73-0.08-2.55-0.26c-0.84-0.1-1.6-0.39-2.35-0.57
	c-0.71-0.3-1.41-0.51-2-0.85c-0.59-0.32-1.15-0.59-1.58-0.93c-0.44-0.32-0.86-0.57-1.14-0.85c-0.54-0.48-0.86-0.78-0.92-0.82
	c0.05,0.05,0.37,0.36,0.88,0.87c0.27,0.3,0.67,0.57,1.1,0.91c0.42,0.37,0.97,0.66,1.56,1.02c0.58,0.37,1.28,0.62,1.99,0.96
	c0.75,0.23,1.52,0.56,2.37,0.7c0.83,0.22,1.72,0.31,2.64,0.39c0.46,0.06,0.9,0.01,1.35,0.03c0.44,0,0.93,0.01,1.38-0.06l1.38-0.16
	c0.45-0.06,0.9-0.2,1.34-0.3c0.9-0.17,1.73-0.55,2.55-0.83c0.78-0.38,1.56-0.72,2.23-1.17c0.67-0.45,1.32-0.85,1.83-1.34
	c0.27-0.23,0.52-0.45,0.77-0.66c0.23-0.23,0.43-0.47,0.63-0.69c0.4-0.44,0.75-0.83,0.94-1.16c0.16-0.24,0.29-0.42,0.4-0.58
	c0,0,0,0,0.01,0c0.85,0,1.53-0.69,1.53-1.53C27.92,16.95,27.23,16.27,26.39,16.27z M26.39,18.19c-0.22,0-0.39-0.18-0.39-0.39
	c0-0.21,0.18-0.39,0.39-0.39c0.21,0,0.39,0.17,0.39,0.39C26.78,18.01,26.6,18.19,26.39,18.19z"/>
<path class="st2" d="M29.72,15.86c-0.84,0-1.53,0.69-1.53,1.53c0,0.37,0.15,0.71,0.38,0.97c-0.09,0.17-0.19,0.36-0.31,0.6
	c-0.19,0.42-0.48,0.81-0.81,1.28c-0.17,0.23-0.33,0.49-0.53,0.75c-0.22,0.25-0.46,0.5-0.7,0.77c-0.46,0.57-1.08,1.06-1.72,1.61
	c-0.3,0.29-0.67,0.52-1.04,0.76c-0.37,0.24-0.73,0.51-1.13,0.74c-0.83,0.4-1.64,0.91-2.57,1.2c-0.46,0.16-0.91,0.36-1.38,0.49
	l-1.44,0.35c-0.48,0.14-0.94,0.18-1.46,0.25c-0.49,0.05-1,0.16-1.48,0.15c-0.49,0.01-0.97,0.02-1.44,0.03
	c-0.48,0.01-0.95-0.07-1.41-0.1c-0.94-0.04-1.81-0.3-2.65-0.44c-0.81-0.27-1.61-0.45-2.29-0.78c-0.68-0.31-1.33-0.56-1.83-0.91
	c-0.52-0.32-1-0.56-1.33-0.85c-0.63-0.49-1.02-0.79-1.08-0.84c0.06,0.06,0.44,0.37,1.05,0.88c0.32,0.31,0.79,0.57,1.3,0.91
	c0.5,0.37,1.14,0.65,1.81,0.99c0.67,0.36,1.47,0.58,2.29,0.89c0.85,0.18,1.73,0.49,2.69,0.57c0.48,0.05,0.95,0.15,1.45,0.16
	c0.5,0.01,1,0.02,1.5,0.03c0.51,0.03,1-0.06,1.5-0.09c0.48-0.04,1.02-0.07,1.52-0.19l1.51-0.3c0.5-0.11,0.97-0.3,1.46-0.45
	c0.98-0.26,1.86-0.75,2.75-1.14c0.43-0.22,0.83-0.49,1.23-0.73c0.4-0.24,0.8-0.47,1.14-0.76c0.7-0.55,1.38-1.06,1.9-1.64
	c0.27-0.28,0.54-0.55,0.79-0.8c0.23-0.28,0.44-0.56,0.64-0.82c0.4-0.52,0.75-0.97,0.94-1.36c0.16-0.28,0.28-0.5,0.39-0.68
	c0.81-0.04,1.46-0.7,1.46-1.52C31.25,16.55,30.56,15.86,29.72,15.86z M29.72,17.78c-0.21,0-0.39-0.17-0.39-0.39
	c0-0.22,0.17-0.39,0.39-0.39s0.39,0.17,0.39,0.39C30.11,17.61,29.93,17.78,29.72,17.78z"/>
<path class="st2" d="M19.01,5.39l-7.09-1.23C10.63,3.94,9.4,4.81,9.17,6.1L6.35,22.34c0.28,0.1,0.56,0.2,0.86,0.27l2.84-16.35
	c0.14-0.81,0.91-1.35,1.71-1.21l0.75,0.13L12.5,5.3c-0.07,0.41,0.21,0.8,0.62,0.87l4.11,0.71c0.41,0.07,0.8-0.2,0.87-0.61l0.02-0.12
	l0.75,0.13c0.8,0.14,1.34,0.91,1.21,1.71l-2.36,13.58c0.2-0.09,0.38-0.2,0.56-0.31c0.15-0.1,0.3-0.19,0.45-0.28l2.23-12.84
	C21.18,6.85,20.31,5.62,19.01,5.39z M16.54,6.12c-0.01,0.08-0.09,0.14-0.18,0.12l-2.72-0.47c-0.08-0.01-0.14-0.09-0.12-0.18
	c0.01-0.07,0.08-0.13,0.15-0.13c0.01,0,0.02,0,0.03,0l2.72,0.47C16.5,5.96,16.55,6.03,16.54,6.12z M17.21,6.23
	c-0.01,0.08-0.09,0.14-0.18,0.12c-0.08-0.01-0.14-0.09-0.12-0.18c0.01-0.08,0.09-0.14,0.18-0.12C17.17,6.07,17.23,6.15,17.21,6.23z"
	/>
</svg>
