<svg width="500" height="500" viewBox="0 0 500 500" fill="none" xmlns="http://www.w3.org/2000/svg">
<path fill-rule="evenodd" clip-rule="evenodd" d="M348.444 0H378.755L378.755 75.1073H363.198V91.7382H378.755L378.755 121.245H363.197V151.288H377.682V164.976H393.307V150.215H393.24V121.245H409.213V135.534L424.3 135.534V150.295H439.925V135.534L439.925 121.245H455.28V135.803H470.905V121.245H500V136.608H484.375V151.369H500V182.94H485.247V211.755H470.905V212.024H455.819V226.785H470.905V273.484H485.247V287.017L500 287.017V378.755V393.24H484.375V348.631H456.627V332.528L485.183 332.528V317.767L409.483 317.767V301.664H424.3V286.903H409.483V270.8H394.666L394.666 257.649H379.849V289.05H394.666L394.666 317.767L408.675 317.767V332.528L441.002 332.528V363.661H456.088V393.183H439.925V407.944H456.088V408.213H482.296V438.061H500L500 454.667H470.494V469.404H456.088V484.702H470.225V500H424.893V484.71H364.271V500H348.599V485.239H332.974V500L273.605 500V483.897H303.61V453.326H318.157V468.062V482.823H333.782V468.062L347.521 468.062V482.555H363.146L363.147 468.062V452.764H332.618V437.735H332.705V423.51H364.224V408.213H303.61V422.437H289.062L289.063 437.198H258.082V467.794H272.629V482.564H258.082V468.599H242.996V468.062L227.64 468.062V453.301H212.983V437.735H226.832V451.959H242.457V437.735H242.996V422.437L227.64 422.437V408.481H258.082V393.72H242.996V363.929H228.179L228.179 348.631H213.362L213.362 378.959H228.179L228.179 393.72H227.64V407.676H212.284V393.451H196.659L196.66 378.959L196.659 363.661H151.67V347.289L136.045 347.289L136.045 332.528H151.67V317.767H136.045V332.528L107.759 332.528V317.767H92.1335V332.528L107.759 332.528V347.289L122.037 347.289V363.661H136.045V378.422V378.959V407.676V408.481V422.437L121.245 422.437V378.755H120.976V363.466H105.418L105.418 347.64L92.0065 347.639V332.618H76.2393V317.767H46.0669V332.797H61.9636V347.639L77.5215 347.64V363.466H105.418V378.755H77.5215V363.466H46.1373V378.755H30.3111V363.734H15.5579V347.371L30.3112 347.371V332.618H0V302.575H15.8944V317.499H46.0668V302.469H30.0429V287.554H0V272.532H30.0429V257.511H0V166.585H15.625V151.824H0V121.245L120.42 121.245V136.339H90.5173V151.637H120.42V136.339H136.045V150.832H150.751V166.667H90.5173V181.428H105.604V197.531H91.595V212.292H105.604V226.516H121.498L121.498 257.649H90.2478V272.41H106.142V287.44H91.595V272.947H76.2394V256.575H90.5172V241.814H76.2394V151.637H61.1531V136.876H46.6056H46.0669H30.9806V151.637H46.0669L46.0669 181.696H60.345V197.262H46.0669L46.0669 182.233H30.9807L30.9807 212.292H46.0669L46.0669 227.322H60.345V241.814H43.3728V256.575H60.345V287.44H75.97V287.708H76.2393V302.201V303.274V316.962H91.8643V303.274H121.498V316.962H137.123V303.274H167.565V316.962H177.039L174.87 324.861L204.776 316.962H211.476V317.767H221.851L221.851 317.767H211.476V332.528L196.659 332.528V347.289H212.284V332.528L227.101 332.528V319.701C234.56 322.141 242.213 323.361 249.866 323.361C252.645 323.361 255.386 323.212 258.082 322.92V332.528L272.629 332.528V347.289H288.254V332.528L303.341 332.528V317.767H278.373L278.373 317.767H287.177V313.436C292.127 310.576 296.709 307.162 300.84 303.274H301.455V317.767H332.705V303.274V303.006V288.513H317.08V303.006H303.071V301.085C310.943 293.025 316.977 283.161 320.524 272.142H321.929L332.705 272.142V257.38H323.665C323.96 254.669 324.112 251.911 324.112 249.116C324.365 242.521 323.589 236.011 321.929 229.733V227.858H394.666V213.097H317.349V217.267C317.26 217.079 317.17 216.892 317.08 216.705V195.384H303.879V166.935H272.629L272.629 176.328H265.862C258.43 174.744 250.805 174.304 243.265 175.008V166.667L244.073 166.667V151.906H228.448V136.876H213.093V166.667L166.577 166.667V151.637H181.843H182.112H197.737V122.652H213.093V90.7139L197.737 90.7139V75.9528H244.073V61.7284H257.274V75.9528H273.168V32.2061L318.157 32.2061V44.8202H287.446V90.7139V91.2507V105.475H303.071V91.2507H317.619V106.549H302.532V121.31H332.705V137.339H318.133V152.092H348.444V137.339H348.33V120.773H333.244L333.244 107.354L333.244 106.549L333.244 91.7875H348.444V120.708H363.198V91.7382H348.869V75.1476H333.244V90.7139H318.696V45.6253H333.244V60.3865H364.224V32.2061L348.33 32.2061V16.1031H272.899V32.2061L257.274 32.2061V45.6254H182.381V61.7284H197.198V75.9528H182.112V90.7139L197.198 90.7139V106.012H182.112V91.2507H166.756V120.505H121.245V91.2507H135.776V60.3865H121.245V44.8202H152.209V32.2061L166.756 32.2061V45.6253H197.737V32.2061L212.015 32.2061V16.1031H197.198V32.2061H181.034V16.1031H152.209V31.9377H121.245V0H136.045V16.1031H152.209V0H181.034V16.1031H212.015V0H228.179V16.1031H273.168V0H302.843V16.0944H318.401V0H332.618V16.0944H348.444V0ZM197.737 196.254V195.652H181.843L181.843 210.413V219.27H181.857C185.485 211.019 190.666 203.322 197.369 196.619C197.491 196.497 197.614 196.375 197.737 196.254ZM178.86 227.322H166.218V210.413L151.94 210.413V195.652L137.123 195.652V181.428H121.498L121.498 212.292H137.392V257.649V272.41H121.767V287.44H137.392V272.947H153.017V287.44H167.565V272.142H151.94V257.38H167.565V242.351H175.881C176.356 237.261 177.352 232.224 178.86 227.322ZM0 363.734L1.12562e-05 378.755H14.7532V363.734H0ZM121.245 437.735V467.543H136.045V452.496V451.959V437.735H121.245ZM121.245 483.369V500L151.556 500V483.369H121.245ZM212.015 500V483.092H182.381V467.794L168.187 467.794V483.101H198.766V500L212.015 500ZM242.996 500L258.047 500V483.36H242.996V500ZM500 482.833L500 469.421H484.375V482.833H500ZM166.756 45.6254H151.131V60.3865H166.756V45.6254ZM135.776 91.2507H151.401V106.012H135.776V91.2507ZM167.295 120.505V136.339H151.67V149.142H166.487V136.876H181.843V120.505L167.295 120.505ZM228.448 91.2507V106.012H244.073V91.2507H228.448ZM257.274 91.2507H272.899V106.012H257.274V91.2507ZM257.274 121.31H272.899V136.071H257.274V121.31ZM363.955 166.667H348.33V181.428H363.955V166.667ZM363.955 198.336H409.483V213.097H363.955V198.336ZM484.375 286.903H438.847V301.664H484.375V286.903ZM349.407 213.097V198.336H333.782V213.097H349.407ZM440.194 167.472H424.569V182.233L394.666 182.233V196.994H425.377V182.233L440.194 182.233V167.472ZM364.224 241.814V256.575H379.849V241.814H364.224ZM379.849 332.528V317.767H364.224V332.528H379.849ZM317.08 333.87H332.705V348.631L394.666 348.631V363.929H364.224V378.422H348.599V363.929H332.705V377.617H301.455V363.929H287.985V377.885H272.36V393.451H257.543V363.124H243.265L243.265 332.797H258.082V348.631H272.36V363.124H286.099V349.168H301.724V362.856H317.08V348.631V333.87ZM317.349 392.378V377.617H301.724V392.378H317.349ZM167.026 393.72V378.959L151.67 378.959V407.676H166.756V393.72H182.381L182.381 407.676V422.437H212.015V408.212H196.659L196.66 393.72H167.026ZM167.026 452.496V437.735H182.135V452.496H168.104V467.543H151.67V452.496H167.026ZM166.756 332.797H182.381V347.558H166.756V332.797ZM2.4431e-05 242.221H15.0215L15.0215 212.178H2.57492e-05L2.4431e-05 242.221ZM61.6919 287.708H46.0669V302.469H61.6919V287.708ZM107.759 227.322H92.1335V242.083H107.759V227.322ZM137.392 241.814V242.351V256.575H153.017V242.351H166.487V227.59H137.392V241.814ZM31.1159 121.513H15.558V136.803H31.1159V121.513ZM77.5216 121.513H61.9636V136.803H77.5216V121.513ZM30.4419 347.558H46.0669V362.319H30.4419V347.558ZM424.03 453.301V438.003H440.463V423.51H456.088V438.003H469.019V453.301H424.03ZM394.666 453.301V468.062H379.041V453.301H394.666ZM198.815 467.794V453.326H212.015V467.794L198.815 467.794ZM289.063 453.301L289.062 437.735H303.38V453.301H289.063ZM332.705 393.451V408.212H348.33V393.451H332.705ZM379.849 378.422H424.838V423.51H379.849V378.422ZM394.666 393.452H410.291V408.213H394.666V393.452ZM439.925 453.301V468.062H424.3V453.301H439.925ZM334.86 270.8V286.366H349.407V301.932H364.224V270.8H349.677H349.407H334.86ZM410.291 469.941H394.666V484.702H410.291V469.941ZM424.3 348.094V362.856H441.002V348.094H424.3ZM454.472 272.142H438.847V286.903H454.472V272.142ZM425.377 303.006H441.002V317.767H425.377V303.006ZM287.177 152.174H317.888V166.935H287.177V152.174ZM470.905 197.799V152.174H456.088V197.799H470.905ZM470.905 241.814V273.484H456.088V241.814H470.905ZM409.213 438.003H364.224V453.301H409.213V438.003ZM440.194 197.799V241.277H425.377V197.799H440.194ZM424.3 273.484V241.814H409.483V273.484H424.3ZM318.157 121.31H287.446V136.876H318.157V121.31ZM257.543 151.637H273.168V166.398H257.543V151.637ZM244.073 16.1031V32.2061H228.179V16.1031H244.073ZM0.536499 0H107.833V107.296H0.536499V0ZM16.6307 16.0944H91.738V91.2017H16.6307V16.0944ZM76.9849 30.8477H31.384V76.4485H76.9849V30.8477ZM0.536499 391.631H107.833V498.927H0.536499V391.631ZM16.6307 407.725H91.738V482.833H16.6307V407.725ZM76.9849 422.479H31.384V468.079H76.9849V422.479ZM499.464 0H392.167V107.296H499.464V0ZM483.369 16.0944H408.262V91.2017H483.369V16.0944ZM423.015 30.8477H468.616V76.4485H423.015V30.8477ZM274.083 260.238C276.451 261.343 278.819 262.448 279.451 262.764L281.977 264.027C282.608 266.553 282.608 269.079 281.345 271.604C278.819 275.393 275.03 278.551 270.61 279.182C266.821 279.814 263.664 279.814 260.506 278.551C258.069 278.063 256.007 277.199 253.741 276.25C253.072 275.969 252.385 275.681 251.665 275.393C240.93 270.342 232.089 262.132 225.143 252.029C221.354 246.977 219.46 241.293 218.828 235.61C218.828 230.558 220.723 226.138 224.512 222.349C225.143 221.717 227.038 220.454 228.301 220.454H231.458C232.721 220.454 233.984 220.454 234.615 224.875C235.878 228.032 239.036 235.61 239.667 236.241C240.299 236.873 240.299 238.136 239.667 238.767C239.667 239.399 239.036 240.662 238.404 241.293C237.524 241.734 236.95 242.481 236.469 243.107C236.261 243.379 236.07 243.628 235.878 243.819C235.247 244.451 234.615 245.714 235.247 246.977C237.773 250.766 240.93 254.554 244.088 257.712C247.876 260.869 252.297 263.395 256.717 265.29C257.98 265.921 259.243 265.921 259.875 264.658C260.506 264.027 261.453 262.764 262.401 261.501C263.348 260.238 264.295 258.975 264.927 258.343C266.189 257.08 267.452 257.08 268.715 257.712C269.347 258.028 271.715 259.133 274.083 260.238ZM206.199 205.299C230.826 180.671 270.61 180.671 295.238 205.299C306.604 217.297 313.551 233.084 312.919 249.503C312.919 284.234 285.134 312.019 250.402 312.019C240.299 312.019 230.195 309.493 220.723 304.442L187.254 313.282L196.095 281.077C182.202 256.449 185.991 225.506 206.199 205.299ZM250.402 301.916C260.506 301.916 269.978 298.758 278.188 293.706C302.815 278.551 309.762 246.345 294.606 221.717C279.451 197.721 247.876 189.512 223.249 205.299C198.621 221.086 191.043 252.66 206.199 277.919L207.462 279.814L202.41 298.758L221.986 293.706L223.88 294.969C232.089 299.39 240.93 301.916 250.402 301.916Z" fill="black"/>
</svg>
