<?xml version="1.0" encoding="utf-8"?>
<!-- Generator: Adobe Illustrator 26.3.1, SVG Export Plug-In . SVG Version: 6.00 Build 0)  -->
<svg version="1.1" id="Capa_1" xmlns="http://www.w3.org/2000/svg" xmlns:xlink="http://www.w3.org/1999/xlink" x="0px" y="0px"
	 viewBox="0 0 32 32" style="enable-background:new 0 0 32 32;" xml:space="preserve">
<style type="text/css">
	.st0{fill:#7C9AC0;}
	.st1{fill:#5EB3E4;}
	.st2{fill:#009ADE;}
</style>
<g>
	<path class="st0" d="M23.37,16.98c-0.88,0-1.59,0.71-1.59,1.59c0,0.29,0.1,0.55,0.24,0.79c-0.04,0.06-0.07,0.1-0.12,0.17
		c-0.2,0.32-0.49,0.59-0.81,0.92c-0.16,0.17-0.33,0.34-0.51,0.53c-0.21,0.17-0.43,0.34-0.66,0.53c-0.44,0.4-0.99,0.72-1.57,1.08
		c-0.58,0.36-1.25,0.62-1.93,0.93c-0.71,0.22-1.43,0.53-2.21,0.64c-0.39,0.07-0.77,0.18-1.17,0.22l-1.2,0.1
		c-0.4,0.05-0.78,0.03-1.2,0.02c-0.41-0.02-0.83,0.01-1.21-0.06c-0.78-0.1-1.55-0.2-2.29-0.41c-0.75-0.15-1.42-0.47-2.08-0.69
		c-0.62-0.32-1.24-0.57-1.75-0.91c-0.51-0.34-1-0.62-1.37-0.96c-0.38-0.32-0.74-0.58-0.97-0.85c-0.45-0.47-0.72-0.76-0.77-0.81
		c0.04,0.05,0.3,0.36,0.73,0.86c0.22,0.29,0.56,0.56,0.93,0.91c0.35,0.36,0.83,0.68,1.33,1.05c0.5,0.38,1.11,0.66,1.73,1.03
		c0.66,0.27,1.34,0.63,2.1,0.82c0.74,0.26,1.54,0.41,2.37,0.56c0.41,0.09,0.81,0.08,1.22,0.13c0.39,0.03,0.84,0.08,1.26,0.05
		l1.26-0.04c0.42-0.02,0.83-0.11,1.24-0.17c0.83-0.08,1.61-0.36,2.38-0.56c0.74-0.29,1.48-0.54,2.12-0.89
		c0.64-0.35,1.27-0.67,1.77-1.08c0.26-0.19,0.51-0.37,0.75-0.54c0.23-0.2,0.43-0.4,0.63-0.58c0.4-0.37,0.75-0.7,0.95-0.98
		c0.07-0.09,0.13-0.16,0.19-0.24c0.07,0.01,0.13,0.04,0.2,0.04c0.87,0,1.59-0.71,1.59-1.59C24.96,17.69,24.25,16.98,23.37,16.98z
		 M23.37,18.97c-0.22,0-0.4-0.18-0.4-0.4c0-0.22,0.18-0.4,0.4-0.4c0.22,0,0.4,0.18,0.4,0.4C23.77,18.79,23.59,18.97,23.37,18.97z"/>
	<path class="st1" d="M26.76,16.28c-0.88,0-1.59,0.71-1.59,1.59c0,0.36,0.14,0.68,0.34,0.94c-0.09,0.15-0.19,0.31-0.31,0.51
		c-0.2,0.38-0.5,0.72-0.84,1.13c-0.17,0.2-0.34,0.43-0.54,0.65c-0.22,0.21-0.46,0.43-0.7,0.67c-0.46,0.49-1.07,0.91-1.7,1.37
		c-0.62,0.47-1.37,0.83-2.11,1.24c-0.79,0.31-1.58,0.73-2.47,0.93c-0.44,0.12-0.87,0.27-1.32,0.36l-1.36,0.23
		c-0.45,0.1-0.88,0.1-1.37,0.13c-0.46,0.01-0.94,0.08-1.38,0.04c-0.9-0.04-1.79-0.09-2.64-0.26c-0.87-0.1-1.66-0.4-2.43-0.59
		c-0.73-0.31-1.46-0.53-2.07-0.88c-0.61-0.34-1.19-0.62-1.64-0.97c-0.46-0.33-0.89-0.59-1.18-0.88c-0.56-0.5-0.89-0.8-0.95-0.85
		c0.06,0.06,0.38,0.38,0.91,0.9c0.28,0.31,0.7,0.59,1.14,0.94c0.44,0.38,1.01,0.69,1.61,1.06c0.6,0.38,1.33,0.64,2.06,1
		c0.78,0.24,1.57,0.58,2.46,0.73c0.86,0.22,1.79,0.32,2.73,0.4c0.47,0.06,0.93,0.01,1.4,0.03c0.45,0,0.96,0.01,1.43-0.07l1.42-0.17
		c0.47-0.07,0.93-0.21,1.39-0.31c0.94-0.17,1.79-0.57,2.64-0.86c0.81-0.4,1.62-0.75,2.31-1.21c0.69-0.46,1.37-0.88,1.9-1.39
		c0.28-0.24,0.54-0.47,0.79-0.69c0.24-0.24,0.45-0.49,0.66-0.72c0.41-0.46,0.77-0.86,0.98-1.2c0.17-0.25,0.3-0.44,0.41-0.6
		c0,0,0,0,0.01,0c0.88,0,1.59-0.71,1.59-1.59C28.35,16.99,27.64,16.28,26.76,16.28z M26.76,18.27c-0.22,0-0.41-0.18-0.41-0.4
		c0-0.22,0.18-0.4,0.41-0.4c0.22,0,0.4,0.18,0.4,0.4C27.17,18.09,26.99,18.27,26.76,18.27z"/>
	<path class="st2" d="M30.21,15.85c-0.87,0-1.59,0.71-1.59,1.59c0,0.39,0.16,0.73,0.39,1.01c-0.09,0.18-0.2,0.38-0.32,0.62
		c-0.19,0.43-0.5,0.84-0.84,1.33c-0.17,0.24-0.34,0.51-0.55,0.78c-0.23,0.25-0.47,0.52-0.73,0.8c-0.48,0.59-1.12,1.1-1.78,1.67
		c-0.31,0.3-0.7,0.53-1.08,0.79c-0.38,0.25-0.76,0.53-1.17,0.77c-0.86,0.41-1.7,0.94-2.66,1.24c-0.47,0.16-0.94,0.37-1.43,0.51
		l-1.49,0.36c-0.49,0.15-0.98,0.19-1.51,0.26c-0.51,0.05-1.03,0.17-1.53,0.16c-0.5,0.01-1,0.02-1.49,0.03
		c-0.49,0.01-0.98-0.07-1.46-0.1c-0.97-0.04-1.87-0.31-2.75-0.46c-0.84-0.28-1.67-0.47-2.37-0.81c-0.71-0.32-1.37-0.58-1.9-0.94
		c-0.54-0.33-1.04-0.58-1.38-0.88c-0.65-0.5-1.05-0.81-1.12-0.87c0.07,0.06,0.46,0.38,1.09,0.92c0.33,0.32,0.82,0.59,1.35,0.95
		c0.52,0.38,1.18,0.67,1.88,1.03c0.7,0.37,1.53,0.6,2.37,0.92c0.88,0.19,1.79,0.51,2.78,0.59c0.49,0.05,0.99,0.16,1.5,0.17
		c0.51,0.01,1.03,0.02,1.56,0.03c0.53,0.03,1.03-0.07,1.55-0.09c0.5-0.04,1.06-0.07,1.58-0.2l1.56-0.31
		c0.52-0.12,1.01-0.31,1.51-0.46c1.02-0.27,1.93-0.78,2.85-1.18c0.45-0.23,0.86-0.51,1.27-0.75c0.41-0.25,0.83-0.49,1.18-0.79
		c0.72-0.57,1.43-1.09,1.97-1.7c0.28-0.29,0.56-0.56,0.82-0.83c0.24-0.29,0.45-0.58,0.66-0.85c0.41-0.54,0.78-1.01,0.97-1.41
		c0.17-0.29,0.29-0.51,0.41-0.71c0.84-0.04,1.51-0.72,1.51-1.57C31.8,16.57,31.09,15.85,30.21,15.85z M30.21,17.84
		c-0.22,0-0.4-0.18-0.4-0.4c0-0.22,0.18-0.4,0.4-0.4c0.22,0,0.4,0.18,0.4,0.4C30.62,17.66,30.43,17.84,30.21,17.84z"/>
	<path class="st2" d="M19.12,5.01l-7.35-1.28C10.44,3.5,9.16,4.4,8.93,5.74L6.01,22.56c0.29,0.11,0.58,0.21,0.9,0.28L9.84,5.9
		c0.15-0.83,0.94-1.39,1.77-1.25l0.78,0.13l-0.02,0.13c-0.07,0.43,0.21,0.83,0.64,0.9l4.25,0.74c0.43,0.07,0.83-0.21,0.9-0.64
		l0.02-0.13l0.78,0.14c0.83,0.14,1.39,0.94,1.25,1.77l-2.44,14.07c0.2-0.1,0.4-0.2,0.58-0.32c0.16-0.1,0.31-0.2,0.47-0.29l2.31-13.3
		C21.36,6.52,20.46,5.24,19.12,5.01z M16.56,5.76c-0.01,0.09-0.1,0.14-0.18,0.13L13.56,5.4c-0.09-0.02-0.14-0.1-0.13-0.18
		c0.01-0.08,0.08-0.13,0.16-0.13c0.01,0,0.02,0,0.03,0l2.82,0.49C16.52,5.59,16.57,5.67,16.56,5.76z M17.26,5.88
		c-0.01,0.08-0.1,0.14-0.18,0.13c-0.09-0.02-0.14-0.1-0.13-0.18c0.01-0.09,0.1-0.14,0.18-0.13C17.21,5.71,17.27,5.8,17.26,5.88z"/>
</g>
</svg>
