<?xml version="1.0" encoding="utf-8"?>
<!-- Generator: Adobe Illustrator 26.3.1, SVG Export Plug-In . SVG Version: 6.00 Build 0)  -->
<svg version="1.1" id="Capa_1" xmlns="http://www.w3.org/2000/svg" xmlns:xlink="http://www.w3.org/1999/xlink" x="0px" y="0px"
	 viewBox="0 0 210 40" style="enable-background:new 0 0 210 40;" xml:space="preserve">
<style type="text/css">
	.st0{display:none;}
	.st1{display:inline;fill:#7C9AC0;}
	.st2{fill:#FCFCFC;}
</style>
<g class="st0">
	<path class="st1" d="M2.27,37.59c0.04,0.04,0.1,0.08,0.16,0.14c0.07,0.06,0.15,0.12,0.23,0.18c0.13,0.08,0.26,0.15,0.38,0.2
		c0.13,0.05,0.26,0.07,0.4,0.07c0.13,0,0.24-0.01,0.32-0.05c0.09-0.03,0.16-0.07,0.21-0.12c0.05-0.05,0.09-0.1,0.11-0.16
		c0.02-0.06,0.03-0.13,0.03-0.2c0-0.08-0.03-0.15-0.09-0.21c-0.06-0.06-0.13-0.12-0.22-0.17c-0.09-0.05-0.18-0.09-0.27-0.12
		c-0.09-0.03-0.17-0.06-0.24-0.08c-0.3-0.11-0.57-0.22-0.8-0.34c-0.23-0.12-0.42-0.26-0.57-0.41c-0.15-0.15-0.27-0.31-0.34-0.5
		c-0.08-0.18-0.11-0.38-0.11-0.6c0-0.23,0.05-0.45,0.14-0.64c0.1-0.19,0.23-0.36,0.41-0.5c0.18-0.13,0.39-0.24,0.64-0.31
		c0.25-0.08,0.52-0.11,0.83-0.11c0.23,0,0.45,0.02,0.66,0.08c0.21,0.05,0.42,0.13,0.63,0.25c0.09,0.05,0.17,0.1,0.25,0.16
		c0.08,0.06,0.14,0.11,0.2,0.16c0.06,0.05,0.1,0.1,0.14,0.15c0.04,0.04,0.05,0.08,0.05,0.12c0,0.03-0.01,0.06-0.03,0.09
		c-0.02,0.03-0.04,0.06-0.07,0.09l-0.58,0.62c-0.04,0.04-0.09,0.06-0.13,0.06c-0.03,0-0.07-0.01-0.1-0.03
		c-0.03-0.02-0.06-0.04-0.1-0.07l-0.03-0.03c-0.05-0.04-0.11-0.09-0.17-0.13c-0.06-0.04-0.13-0.09-0.2-0.12
		C3.94,35,3.86,34.97,3.79,34.94c-0.08-0.02-0.16-0.03-0.24-0.03c-0.08,0-0.16,0.01-0.23,0.02C3.24,34.94,3.17,34.96,3.12,35
		c-0.06,0.03-0.1,0.07-0.13,0.12c-0.03,0.05-0.05,0.11-0.05,0.18c0,0.07,0.02,0.13,0.06,0.18c0.03,0.05,0.09,0.1,0.16,0.14
		c0.07,0.05,0.16,0.09,0.26,0.13c0.11,0.04,0.23,0.08,0.36,0.13c0.27,0.09,0.52,0.18,0.74,0.28c0.23,0.1,0.42,0.21,0.58,0.34
		c0.17,0.13,0.3,0.29,0.39,0.48c0.09,0.18,0.14,0.41,0.14,0.67c0,0.28-0.06,0.53-0.17,0.76c-0.11,0.23-0.27,0.42-0.47,0.58
		c-0.2,0.16-0.43,0.28-0.7,0.37c-0.27,0.09-0.56,0.13-0.86,0.13c-0.29,0-0.58-0.05-0.86-0.16c-0.28-0.1-0.54-0.24-0.78-0.42
		c-0.1-0.07-0.19-0.14-0.26-0.22c-0.07-0.07-0.13-0.13-0.17-0.17l-0.01-0.01c0-0.01,0-0.01-0.01-0.01c0,0-0.01,0-0.01,0
		c0-0.01-0.01-0.01-0.01-0.01c0,0,0,0-0.01,0c-0.06-0.06-0.09-0.11-0.09-0.15c0-0.04,0.03-0.09,0.09-0.14l0.65-0.63
		c0.06-0.04,0.1-0.06,0.13-0.06c0.02,0,0.05,0.01,0.07,0.02C2.2,37.54,2.23,37.56,2.27,37.59L2.27,37.59z"/>
	<path class="st1" d="M11.2,36.21c-0.06-0.19-0.14-0.37-0.24-0.54c-0.1-0.17-0.23-0.32-0.37-0.47c-0.15-0.14-0.3-0.26-0.48-0.36
		c-0.17-0.1-0.36-0.18-0.55-0.23c-0.2-0.05-0.4-0.08-0.61-0.08c-0.23,0-0.45,0.03-0.65,0.09c-0.21,0.06-0.4,0.14-0.58,0.26
		c-0.18,0.1-0.34,0.24-0.48,0.39c-0.14,0.15-0.26,0.32-0.36,0.5c-0.1,0.18-0.18,0.38-0.23,0.59c-0.06,0.21-0.08,0.42-0.08,0.65
		c0,0.36,0.07,0.69,0.21,0.99c0.14,0.3,0.32,0.57,0.55,0.79c0.23,0.22,0.5,0.4,0.81,0.52c0.31,0.13,0.64,0.19,0.98,0.19
		c0.31,0,0.61-0.05,0.89-0.17c0.28-0.11,0.53-0.28,0.75-0.48c0.04-0.03,0.07-0.06,0.1-0.1c0.03-0.04,0.04-0.08,0.04-0.13
		c0-0.03-0.01-0.05-0.01-0.08c-0.01-0.02-0.03-0.05-0.05-0.09l-0.4-0.45c-0.04-0.04-0.08-0.08-0.11-0.1
		c-0.03-0.02-0.07-0.03-0.1-0.03c-0.03,0-0.06,0.01-0.09,0.02c-0.03,0.02-0.07,0.04-0.11,0.07c-0.04,0.05-0.1,0.09-0.18,0.13
		c-0.07,0.04-0.16,0.08-0.25,0.11c-0.09,0.03-0.18,0.06-0.28,0.08c-0.1,0.02-0.19,0.03-0.28,0.03c-0.1,0-0.21-0.01-0.32-0.04
		c-0.11-0.03-0.22-0.07-0.32-0.14c-0.1-0.07-0.19-0.15-0.27-0.26c-0.08-0.11-0.13-0.25-0.15-0.41h2.73c0.16,0,0.28-0.01,0.36-0.03
		c0.08-0.02,0.14-0.05,0.18-0.1c0.03-0.05,0.05-0.12,0.06-0.2c0-0.08,0.01-0.19,0.01-0.32C11.29,36.59,11.26,36.39,11.2,36.21z
		 M8,36.37c0.04-0.08,0.09-0.17,0.16-0.25c0.06-0.08,0.14-0.16,0.22-0.22c0.08-0.07,0.17-0.12,0.26-0.16
		c0.09-0.04,0.19-0.06,0.29-0.06c0.14,0,0.26,0.02,0.36,0.05c0.1,0.04,0.19,0.09,0.27,0.15c0.08,0.06,0.15,0.13,0.21,0.22
		c0.06,0.08,0.12,0.18,0.17,0.27H8z"/>
	<path class="st1" d="M12.4,34.87c0-0.05,0.01-0.09,0.03-0.13c0.02-0.04,0.04-0.06,0.07-0.09c0.03-0.02,0.06-0.04,0.1-0.05
		c0.03-0.01,0.07-0.02,0.11-0.02h0.57c0.07,0,0.11,0.02,0.15,0.06c0.04,0.04,0.07,0.09,0.1,0.14c0.02,0.06,0.05,0.12,0.07,0.19
		c0.02,0.07,0.05,0.14,0.07,0.21c0.07-0.08,0.15-0.17,0.22-0.25c0.08-0.08,0.15-0.15,0.24-0.22c0.09-0.06,0.18-0.12,0.28-0.15
		c0.1-0.04,0.22-0.06,0.35-0.06c0.14,0,0.26,0.01,0.37,0.03c0.11,0.02,0.21,0.05,0.31,0.09c0.1,0.04,0.19,0.09,0.29,0.15
		c0.09,0.06,0.2,0.13,0.31,0.21c0.11,0.06,0.16,0.14,0.16,0.22c0,0.05-0.02,0.12-0.06,0.19L15.79,36c-0.07,0.1-0.15,0.15-0.25,0.15
		c-0.05,0-0.11-0.01-0.17-0.04c-0.11-0.11-0.22-0.19-0.33-0.24c-0.11-0.05-0.24-0.08-0.39-0.08c-0.1,0-0.19,0.01-0.26,0.04
		c-0.07,0.03-0.14,0.07-0.2,0.12c-0.06,0.05-0.12,0.11-0.17,0.18c-0.06,0.07-0.11,0.15-0.16,0.24v2.75c0,0.1-0.02,0.17-0.07,0.22
		c-0.05,0.05-0.12,0.08-0.23,0.08H12.7c-0.2,0-0.3-0.1-0.3-0.29V34.87z"/>
	<path class="st1" d="M16.77,34.97c-0.05-0.1-0.06-0.19-0.03-0.26c0.03-0.07,0.11-0.11,0.23-0.11h0.97c0.07,0,0.12,0.02,0.17,0.05
		c0.05,0.04,0.08,0.09,0.1,0.15c0.04,0.13,0.09,0.28,0.14,0.45c0.05,0.17,0.1,0.34,0.16,0.51c0.06,0.18,0.11,0.35,0.17,0.53
		c0.05,0.17,0.11,0.33,0.15,0.48c0.05,0.15,0.09,0.27,0.13,0.38c0.03,0.11,0.06,0.18,0.08,0.23l0.81-2.58
		c0.03-0.08,0.07-0.14,0.11-0.16c0.04-0.03,0.1-0.04,0.18-0.04h1c0.07,0,0.13,0.01,0.17,0.03c0.04,0.02,0.06,0.04,0.08,0.07
		c0.01,0.03,0.02,0.06,0,0.1c0,0.04-0.02,0.08-0.04,0.12l-1.81,4.33c-0.03,0.05-0.06,0.09-0.1,0.12c-0.04,0.03-0.1,0.05-0.17,0.05
		h-0.45c-0.1,0-0.17-0.01-0.21-0.04c-0.04-0.03-0.07-0.07-0.09-0.12L16.77,34.97z"/>
	<path class="st1" d="M23.64,32.74c-0.05-0.05-0.13-0.07-0.21-0.07h-0.88c-0.1,0-0.17,0.02-0.21,0.07
		c-0.05,0.04-0.07,0.12-0.07,0.23v0.74c0,0.21,0.09,0.31,0.28,0.31h0.88c0.04,0,0.08-0.01,0.12-0.03c0.03-0.02,0.06-0.05,0.09-0.08
		c0.02-0.03,0.04-0.07,0.06-0.1c0.01-0.03,0.02-0.07,0.02-0.1v-0.74C23.72,32.86,23.69,32.79,23.64,32.74z M23.69,34.77
		c-0.02-0.03-0.05-0.07-0.08-0.09c-0.03-0.03-0.07-0.05-0.1-0.06c-0.04-0.01-0.07-0.02-0.1-0.02h-0.87c-0.1,0-0.17,0.03-0.21,0.09
		c-0.05,0.06-0.07,0.13-0.07,0.21v4.23c0,0.19,0.09,0.29,0.28,0.29h0.87c0.1,0,0.17-0.02,0.23-0.08c0.05-0.05,0.08-0.12,0.08-0.21
		v-4.23C23.72,34.84,23.71,34.8,23.69,34.77z"/>
	<path class="st1" d="M28.04,37.93c0.03-0.03,0.07-0.04,0.1-0.05c0.03-0.01,0.06-0.01,0.08-0.01c0.04,0,0.08,0.01,0.12,0.03
		c0.03,0.02,0.07,0.05,0.11,0.11l0.43,0.64c0.01,0.02,0.02,0.04,0.04,0.07c0.01,0.03,0.01,0.05,0.01,0.06
		c0,0.06-0.02,0.11-0.05,0.14c-0.04,0.04-0.07,0.07-0.12,0.1c-0.21,0.14-0.44,0.26-0.68,0.35c-0.25,0.09-0.51,0.13-0.78,0.13
		c-0.23,0-0.45-0.03-0.66-0.09c-0.21-0.06-0.41-0.14-0.59-0.25c-0.18-0.11-0.35-0.24-0.5-0.39c-0.15-0.15-0.28-0.32-0.39-0.5
		c-0.11-0.19-0.19-0.39-0.25-0.6c-0.06-0.21-0.09-0.44-0.09-0.67c0-0.23,0.03-0.45,0.09-0.67c0.06-0.21,0.14-0.41,0.25-0.6
		c0.11-0.18,0.24-0.35,0.39-0.5c0.15-0.15,0.32-0.28,0.5-0.39c0.18-0.11,0.38-0.19,0.59-0.25c0.21-0.06,0.43-0.09,0.66-0.09
		c0.28,0,0.53,0.04,0.77,0.11c0.24,0.07,0.45,0.18,0.66,0.33l-0.01-0.01c0.06,0.03,0.1,0.07,0.13,0.11c0.03,0.05,0.05,0.1,0.05,0.17
		c0,0.04-0.01,0.09-0.04,0.14l-0.34,0.57c-0.07,0.12-0.16,0.19-0.26,0.19c-0.02,0-0.05-0.01-0.08-0.02
		c-0.03-0.01-0.07-0.03-0.11-0.06c-0.11-0.07-0.23-0.14-0.36-0.18c-0.13-0.05-0.27-0.07-0.41-0.07c-0.16,0-0.31,0.03-0.44,0.1
		c-0.13,0.06-0.25,0.15-0.34,0.26c-0.1,0.11-0.17,0.24-0.22,0.39c-0.05,0.15-0.08,0.3-0.08,0.46c0,0.17,0.03,0.33,0.08,0.47
		c0.05,0.15,0.13,0.27,0.22,0.38c0.1,0.1,0.21,0.19,0.34,0.25c0.14,0.06,0.28,0.09,0.44,0.09c0.14,0,0.28-0.02,0.4-0.08
		C27.81,38.07,27.93,38.01,28.04,37.93L28.04,37.93z"/>
	<path class="st1" d="M31.34,32.74c-0.05-0.05-0.13-0.07-0.21-0.07h-0.88c-0.1,0-0.17,0.02-0.21,0.07
		c-0.05,0.04-0.07,0.12-0.07,0.23v0.74c0,0.21,0.09,0.31,0.28,0.31h0.88c0.05,0,0.09-0.01,0.13-0.03c0.03-0.02,0.06-0.05,0.09-0.08
		c0.03-0.03,0.04-0.07,0.06-0.1c0.01-0.03,0.02-0.07,0.02-0.1v-0.74C31.42,32.86,31.39,32.79,31.34,32.74z M31.39,34.77
		c-0.02-0.03-0.05-0.07-0.08-0.09c-0.03-0.03-0.06-0.05-0.1-0.06c-0.04-0.01-0.07-0.02-0.1-0.02h-0.87c-0.1,0-0.17,0.03-0.21,0.09
		c-0.05,0.06-0.07,0.13-0.07,0.21v4.23c0,0.19,0.09,0.29,0.28,0.29h0.87c0.1,0,0.17-0.02,0.23-0.08c0.05-0.05,0.08-0.12,0.08-0.21
		v-4.23C31.42,34.84,31.41,34.8,31.39,34.77z"/>
	<path class="st1" d="M37.3,36.02c-0.13-0.3-0.31-0.57-0.53-0.79c-0.23-0.22-0.49-0.4-0.79-0.53c-0.3-0.13-0.62-0.19-0.97-0.19
		c-0.23,0-0.46,0.03-0.67,0.08c-0.21,0.06-0.41,0.14-0.6,0.25c-0.18,0.11-0.35,0.24-0.5,0.39c-0.15,0.15-0.28,0.32-0.39,0.5
		c-0.11,0.18-0.19,0.39-0.25,0.6c-0.06,0.22-0.09,0.44-0.09,0.67c0,0.23,0.03,0.46,0.09,0.67c0.06,0.21,0.14,0.41,0.25,0.6
		c0.11,0.18,0.24,0.35,0.39,0.5c0.15,0.15,0.32,0.28,0.5,0.39c0.18,0.11,0.38,0.19,0.6,0.25c0.21,0.06,0.44,0.09,0.67,0.09
		c0.23,0,0.45-0.03,0.66-0.09c0.21-0.06,0.41-0.14,0.59-0.25c0.19-0.11,0.35-0.23,0.5-0.39c0.15-0.15,0.28-0.32,0.39-0.5
		c0.11-0.19,0.19-0.39,0.25-0.6c0.06-0.21,0.09-0.44,0.09-0.67C37.49,36.65,37.43,36.33,37.3,36.02z M35.99,37.47
		c-0.05,0.15-0.12,0.27-0.21,0.38c-0.09,0.1-0.21,0.19-0.34,0.25c-0.13,0.06-0.28,0.09-0.45,0.09c-0.17,0-0.32-0.03-0.46-0.09
		c-0.13-0.06-0.25-0.14-0.34-0.25c-0.09-0.11-0.17-0.23-0.22-0.38c-0.05-0.14-0.08-0.3-0.08-0.47c0-0.16,0.03-0.31,0.08-0.46
		c0.05-0.15,0.13-0.28,0.22-0.39c0.1-0.11,0.21-0.2,0.34-0.26c0.14-0.06,0.29-0.1,0.46-0.1c0.17,0,0.31,0.03,0.45,0.1
		c0.13,0.06,0.24,0.15,0.34,0.26c0.09,0.11,0.16,0.24,0.21,0.39c0.05,0.15,0.08,0.3,0.08,0.46C36.07,37.17,36.04,37.33,35.99,37.47z
		"/>
	<path class="st1" d="M41.13,33.94c0-0.05,0.02-0.09,0.05-0.12c0.04-0.03,0.08-0.05,0.13-0.05h4.08c0.05,0,0.09,0.01,0.12,0.04
		c0.04,0.03,0.06,0.07,0.06,0.12v0.94c0,0.04-0.02,0.09-0.05,0.13c-0.03,0.04-0.08,0.06-0.14,0.06h-1.31v4.15
		c0,0.04-0.02,0.09-0.05,0.12c-0.03,0.04-0.08,0.05-0.13,0.05h-1.11c-0.04,0-0.08-0.02-0.12-0.05c-0.04-0.03-0.06-0.08-0.06-0.13
		v-4.15h-1.31c-0.05,0-0.09-0.02-0.13-0.05c-0.03-0.03-0.05-0.08-0.05-0.14V33.94z"/>
	<path class="st1" d="M50.22,36.21c-0.06-0.19-0.14-0.37-0.24-0.54c-0.1-0.17-0.23-0.32-0.37-0.47c-0.14-0.14-0.3-0.26-0.48-0.36
		c-0.17-0.1-0.36-0.18-0.55-0.23c-0.2-0.05-0.4-0.08-0.61-0.08c-0.23,0-0.45,0.03-0.65,0.09c-0.21,0.06-0.4,0.14-0.58,0.26
		c-0.18,0.1-0.34,0.24-0.48,0.39c-0.14,0.15-0.26,0.32-0.36,0.5c-0.1,0.18-0.18,0.38-0.23,0.59c-0.05,0.21-0.08,0.42-0.08,0.65
		c0,0.36,0.07,0.69,0.21,0.99c0.13,0.3,0.32,0.57,0.56,0.79c0.23,0.22,0.5,0.4,0.81,0.52c0.31,0.13,0.64,0.19,0.98,0.19
		c0.31,0,0.6-0.05,0.88-0.17c0.28-0.12,0.53-0.28,0.75-0.48c0.04-0.03,0.07-0.06,0.1-0.1c0.03-0.04,0.04-0.08,0.04-0.13
		c0-0.03,0-0.05-0.01-0.08c-0.01-0.02-0.03-0.05-0.05-0.09l-0.4-0.45c-0.05-0.04-0.08-0.08-0.12-0.1c-0.03-0.02-0.07-0.03-0.1-0.03
		c-0.03,0-0.06,0.01-0.09,0.02c-0.03,0.02-0.07,0.04-0.1,0.07c-0.05,0.05-0.1,0.09-0.18,0.13c-0.07,0.04-0.16,0.08-0.25,0.11
		c-0.09,0.03-0.18,0.06-0.28,0.08c-0.1,0.02-0.19,0.03-0.28,0.03c-0.1,0-0.21-0.01-0.32-0.04c-0.11-0.03-0.22-0.07-0.32-0.14
		c-0.1-0.07-0.19-0.15-0.27-0.26c-0.08-0.11-0.13-0.25-0.16-0.41h2.73c0.16,0,0.28-0.01,0.36-0.03c0.08-0.02,0.14-0.05,0.18-0.1
		c0.03-0.05,0.05-0.12,0.06-0.2c0-0.08,0.01-0.19,0.01-0.32C50.3,36.59,50.27,36.39,50.22,36.21z M47.01,36.37
		c0.04-0.08,0.09-0.17,0.16-0.25c0.07-0.08,0.14-0.16,0.22-0.22c0.08-0.07,0.17-0.12,0.26-0.16c0.09-0.04,0.19-0.06,0.29-0.06
		c0.13,0,0.26,0.02,0.36,0.05c0.1,0.04,0.19,0.09,0.27,0.15c0.08,0.06,0.15,0.13,0.21,0.22c0.06,0.08,0.12,0.18,0.17,0.27H47.01z
		 M49.11,32.99c-0.01-0.02-0.02-0.04-0.04-0.06c-0.02-0.02-0.05-0.02-0.09-0.02h-0.98c-0.04,0-0.08,0.01-0.12,0.04
		c-0.04,0.02-0.07,0.07-0.08,0.12l-0.2,0.78c-0.01,0.02-0.01,0.05-0.02,0.08c-0.01,0.03-0.01,0.07-0.01,0.09
		c0,0.03,0.01,0.05,0.02,0.07c0.01,0.02,0.04,0.03,0.08,0.03h0.83c0.05,0,0.09-0.01,0.12-0.04c0.03-0.03,0.06-0.07,0.09-0.12
		l0.37-0.82c0.01-0.02,0.02-0.05,0.03-0.08C49.12,33.04,49.12,33.02,49.11,32.99z"/>
	<path class="st1" d="M54.53,37.93c0.03-0.03,0.07-0.04,0.1-0.05c0.03-0.01,0.06-0.01,0.07-0.01c0.04,0,0.08,0.01,0.12,0.03
		c0.04,0.02,0.07,0.05,0.11,0.11l0.42,0.64c0.02,0.02,0.03,0.04,0.04,0.07c0.01,0.03,0.02,0.05,0.02,0.06
		c0,0.06-0.02,0.11-0.06,0.14c-0.04,0.04-0.08,0.07-0.12,0.1c-0.21,0.14-0.43,0.26-0.68,0.35c-0.25,0.09-0.51,0.13-0.78,0.13
		c-0.23,0-0.45-0.03-0.66-0.09c-0.21-0.06-0.41-0.14-0.59-0.25c-0.18-0.11-0.35-0.24-0.5-0.39c-0.15-0.15-0.28-0.32-0.39-0.5
		c-0.11-0.19-0.19-0.39-0.25-0.6c-0.06-0.21-0.09-0.44-0.09-0.67c0-0.23,0.03-0.45,0.09-0.67c0.06-0.21,0.14-0.41,0.25-0.6
		c0.1-0.18,0.23-0.35,0.39-0.5c0.15-0.15,0.32-0.28,0.5-0.39c0.18-0.11,0.38-0.19,0.59-0.25c0.21-0.06,0.43-0.09,0.66-0.09
		c0.27,0,0.53,0.04,0.76,0.11c0.24,0.07,0.45,0.18,0.66,0.33l-0.01-0.01c0.06,0.03,0.1,0.07,0.13,0.11c0.03,0.05,0.05,0.1,0.05,0.17
		c0,0.04-0.02,0.09-0.05,0.14l-0.34,0.57c-0.07,0.12-0.16,0.19-0.26,0.19c-0.02,0-0.05-0.01-0.08-0.02
		c-0.03-0.01-0.07-0.03-0.11-0.06c-0.11-0.07-0.23-0.14-0.36-0.18c-0.13-0.05-0.26-0.07-0.41-0.07c-0.16,0-0.3,0.03-0.44,0.1
		c-0.14,0.06-0.25,0.15-0.35,0.26c-0.09,0.11-0.17,0.24-0.22,0.39c-0.05,0.15-0.08,0.3-0.08,0.46c0,0.17,0.03,0.33,0.08,0.47
		c0.05,0.15,0.13,0.27,0.22,0.38c0.1,0.1,0.21,0.19,0.35,0.25c0.13,0.06,0.28,0.09,0.44,0.09c0.15,0,0.28-0.02,0.41-0.08
		C54.29,38.07,54.41,38.01,54.53,37.93L54.53,37.93z"/>
	<path class="st1" d="M56.55,34.66c0.03-0.03,0.07-0.05,0.1-0.05c0.03-0.01,0.07-0.01,0.1-0.01h0.57c0.05,0,0.08,0.01,0.12,0.02
		c0.03,0.02,0.06,0.04,0.08,0.07c0.02,0.03,0.04,0.06,0.06,0.09c0.01,0.03,0.03,0.07,0.04,0.11l0.08,0.33
		c0.04-0.08,0.1-0.16,0.18-0.24c0.09-0.08,0.19-0.16,0.31-0.23c0.13-0.07,0.27-0.12,0.44-0.17c0.16-0.04,0.35-0.06,0.55-0.06
		c0.29,0,0.55,0.06,0.77,0.17c0.23,0.11,0.42,0.26,0.58,0.45c0.16,0.19,0.28,0.42,0.36,0.67c0.08,0.26,0.12,0.53,0.12,0.82v2.49
		c0,0.1-0.02,0.17-0.06,0.22c-0.04,0.05-0.11,0.08-0.2,0.08h-0.88c-0.11,0-0.18-0.02-0.22-0.05c-0.04-0.04-0.06-0.11-0.06-0.22
		v-2.47c0-0.11-0.02-0.21-0.08-0.31c-0.05-0.1-0.11-0.19-0.19-0.26c-0.09-0.08-0.17-0.13-0.28-0.18c-0.1-0.04-0.2-0.06-0.31-0.06
		c-0.09,0-0.18,0.02-0.28,0.06c-0.1,0.04-0.18,0.1-0.26,0.17c-0.08,0.07-0.15,0.16-0.2,0.25c-0.06,0.1-0.09,0.2-0.09,0.32v2.47
		c0,0.04-0.01,0.09-0.02,0.13c-0.02,0.04-0.04,0.08-0.07,0.1c-0.04,0.02-0.06,0.03-0.09,0.04c-0.03,0.01-0.06,0.01-0.1,0.01h-0.86
		c-0.11,0-0.19-0.03-0.24-0.08c-0.05-0.05-0.07-0.12-0.07-0.21v-4.24c0-0.05,0.01-0.09,0.03-0.13c0.02-0.04,0.05-0.07,0.09-0.09
		L56.55,34.66z"/>
	<path class="st1" d="M63.63,32.74c-0.05-0.05-0.13-0.07-0.21-0.07h-0.88c-0.1,0-0.17,0.02-0.21,0.07
		c-0.05,0.04-0.07,0.12-0.07,0.23v0.74c0,0.21,0.09,0.31,0.28,0.31h0.88c0.04,0,0.09-0.01,0.12-0.03c0.03-0.02,0.07-0.05,0.09-0.08
		c0.02-0.03,0.04-0.07,0.06-0.1c0.01-0.03,0.02-0.07,0.02-0.1v-0.74C63.72,32.86,63.69,32.79,63.63,32.74z M63.68,34.77
		c-0.02-0.03-0.05-0.07-0.08-0.09c-0.03-0.03-0.06-0.05-0.1-0.06c-0.04-0.01-0.07-0.02-0.1-0.02h-0.87c-0.1,0-0.17,0.03-0.21,0.09
		c-0.05,0.06-0.07,0.13-0.07,0.21v4.23c0,0.19,0.09,0.29,0.28,0.29h0.87c0.1,0,0.17-0.02,0.23-0.08c0.05-0.05,0.08-0.12,0.08-0.21
		v-4.23C63.72,34.84,63.71,34.8,63.68,34.77z"/>
	<path class="st1" d="M68.04,37.93c0.03-0.03,0.07-0.04,0.1-0.05c0.03-0.01,0.06-0.01,0.07-0.01c0.04,0,0.08,0.01,0.12,0.03
		c0.03,0.02,0.07,0.05,0.11,0.11l0.43,0.64c0.01,0.02,0.02,0.04,0.04,0.07c0.01,0.03,0.01,0.05,0.01,0.06
		c0,0.06-0.02,0.11-0.05,0.14c-0.04,0.04-0.07,0.07-0.12,0.1c-0.21,0.14-0.44,0.26-0.68,0.35c-0.25,0.09-0.51,0.13-0.78,0.13
		c-0.23,0-0.45-0.03-0.66-0.09c-0.21-0.06-0.41-0.14-0.59-0.25c-0.18-0.11-0.35-0.24-0.5-0.39c-0.15-0.15-0.28-0.32-0.39-0.5
		c-0.11-0.19-0.19-0.39-0.25-0.6c-0.06-0.21-0.09-0.44-0.09-0.67c0-0.23,0.03-0.45,0.09-0.67c0.06-0.21,0.14-0.41,0.25-0.6
		c0.11-0.18,0.24-0.35,0.39-0.5c0.15-0.15,0.32-0.28,0.5-0.39c0.18-0.11,0.38-0.19,0.59-0.25c0.21-0.06,0.43-0.09,0.66-0.09
		c0.28,0,0.53,0.04,0.77,0.11c0.24,0.07,0.45,0.18,0.66,0.33l-0.01-0.01c0.06,0.03,0.1,0.07,0.13,0.11c0.03,0.05,0.05,0.1,0.05,0.17
		c0,0.04-0.01,0.09-0.05,0.14l-0.34,0.57c-0.07,0.12-0.16,0.19-0.26,0.19c-0.02,0-0.05-0.01-0.08-0.02
		c-0.03-0.01-0.07-0.03-0.11-0.06c-0.11-0.07-0.23-0.14-0.36-0.18c-0.13-0.05-0.26-0.07-0.41-0.07c-0.16,0-0.31,0.03-0.44,0.1
		c-0.13,0.06-0.25,0.15-0.34,0.26c-0.1,0.11-0.17,0.24-0.22,0.39c-0.05,0.15-0.08,0.3-0.08,0.46c0,0.17,0.03,0.33,0.08,0.47
		c0.05,0.15,0.13,0.27,0.22,0.38c0.1,0.1,0.21,0.19,0.34,0.25c0.14,0.06,0.28,0.09,0.44,0.09c0.14,0,0.28-0.02,0.4-0.08
		C67.8,38.07,67.92,38.01,68.04,37.93L68.04,37.93z"/>
	<path class="st1" d="M74.6,36.02c-0.13-0.3-0.31-0.57-0.53-0.79c-0.22-0.22-0.49-0.4-0.79-0.53c-0.3-0.13-0.62-0.19-0.97-0.19
		c-0.23,0-0.46,0.03-0.67,0.08c-0.22,0.06-0.41,0.14-0.6,0.25c-0.18,0.11-0.35,0.24-0.5,0.39c-0.15,0.15-0.28,0.32-0.39,0.5
		c-0.11,0.18-0.19,0.39-0.25,0.6c-0.06,0.22-0.09,0.44-0.09,0.67c0,0.23,0.03,0.46,0.09,0.67c0.06,0.21,0.14,0.41,0.25,0.6
		c0.11,0.18,0.23,0.35,0.39,0.5c0.15,0.15,0.32,0.28,0.5,0.39c0.19,0.11,0.38,0.19,0.6,0.25c0.21,0.06,0.44,0.09,0.67,0.09
		c0.23,0,0.45-0.03,0.66-0.09c0.21-0.06,0.41-0.14,0.59-0.25c0.19-0.11,0.36-0.23,0.5-0.39c0.15-0.15,0.28-0.32,0.39-0.5
		c0.11-0.19,0.19-0.39,0.25-0.6c0.06-0.21,0.09-0.44,0.09-0.67C74.8,36.65,74.73,36.33,74.6,36.02z M73.3,37.47
		c-0.05,0.15-0.12,0.27-0.21,0.38c-0.09,0.1-0.21,0.19-0.34,0.25c-0.13,0.06-0.28,0.09-0.44,0.09c-0.17,0-0.32-0.03-0.46-0.09
		c-0.14-0.06-0.25-0.14-0.35-0.25c-0.09-0.11-0.17-0.23-0.22-0.38c-0.05-0.14-0.08-0.3-0.08-0.47c0-0.16,0.03-0.31,0.08-0.46
		c0.05-0.15,0.13-0.28,0.22-0.39c0.1-0.11,0.21-0.2,0.35-0.26c0.14-0.06,0.29-0.1,0.46-0.1c0.16,0,0.31,0.03,0.44,0.1
		c0.13,0.06,0.25,0.15,0.34,0.26c0.09,0.11,0.16,0.24,0.21,0.39c0.05,0.15,0.07,0.3,0.07,0.46C73.37,37.17,73.35,37.33,73.3,37.47z"
		/>
	<path class="st1" d="M83.79,39.24L81.8,34.1l-0.1-0.21c-0.02-0.02-0.04-0.05-0.07-0.07c-0.03-0.03-0.07-0.04-0.11-0.04h-0.97
		c-0.02,0-0.04,0-0.07,0.01c-0.02,0.01-0.04,0.02-0.06,0.04c-0.02,0.02-0.04,0.03-0.05,0.05c-0.02,0.02-0.02,0.04-0.02,0.05
		l-2.06,5.34c-0.02,0.05-0.02,0.09,0.02,0.11c0.03,0.02,0.07,0.04,0.12,0.04h1.12c0.1,0,0.16-0.05,0.19-0.14
		c0.05-0.13,0.1-0.26,0.14-0.38c0.05-0.13,0.1-0.26,0.15-0.39h2.01c0.05,0.13,0.1,0.26,0.15,0.39c0.05,0.13,0.1,0.25,0.15,0.38
		c0.02,0.05,0.04,0.09,0.08,0.11c0.03,0.02,0.08,0.03,0.13,0.03h1.09c0.07,0,0.12-0.02,0.14-0.05
		C83.81,39.33,83.81,39.29,83.79,39.24z M80.46,37.28c0.05-0.13,0.1-0.27,0.15-0.42c0.05-0.15,0.1-0.3,0.14-0.45
		c0.05-0.15,0.1-0.3,0.15-0.45c0.05-0.15,0.1-0.29,0.15-0.42l0.58,1.74H80.46z"/>
	<path class="st1" d="M83.81,34.97c-0.05-0.1-0.06-0.19-0.03-0.26c0.03-0.07,0.11-0.11,0.23-0.11h0.97c0.07,0,0.12,0.02,0.17,0.05
		c0.05,0.04,0.08,0.09,0.1,0.15c0.04,0.13,0.09,0.28,0.14,0.45c0.05,0.17,0.11,0.34,0.16,0.51c0.05,0.18,0.11,0.35,0.17,0.53
		c0.05,0.17,0.1,0.33,0.15,0.48c0.05,0.15,0.09,0.27,0.13,0.38c0.04,0.11,0.07,0.18,0.08,0.23l0.81-2.58
		c0.03-0.08,0.07-0.14,0.11-0.16c0.04-0.03,0.1-0.04,0.18-0.04h1c0.07,0,0.13,0.01,0.17,0.03c0.04,0.02,0.06,0.04,0.08,0.07
		c0.01,0.03,0.01,0.06,0.01,0.1c-0.01,0.04-0.02,0.08-0.04,0.12l-1.81,4.33c-0.03,0.05-0.06,0.09-0.1,0.12
		c-0.04,0.03-0.1,0.05-0.17,0.05h-0.45c-0.1,0-0.17-0.01-0.21-0.04c-0.04-0.03-0.07-0.07-0.1-0.12L83.81,34.97z"/>
	<path class="st1" d="M94.02,34.73c-0.02-0.04-0.04-0.07-0.07-0.09c-0.03-0.03-0.06-0.05-0.1-0.05c-0.04-0.01-0.07-0.01-0.1-0.01
		h-0.57c-0.05,0-0.09,0-0.12,0.01c-0.03,0.01-0.05,0.02-0.07,0.04c-0.02,0.02-0.04,0.05-0.05,0.09c-0.02,0.04-0.03,0.09-0.06,0.15
		l-0.11,0.34c-0.07-0.1-0.15-0.19-0.24-0.27c-0.09-0.09-0.19-0.16-0.31-0.22c-0.11-0.06-0.23-0.11-0.37-0.14
		c-0.14-0.04-0.28-0.05-0.44-0.05c-0.34,0-0.67,0.06-0.97,0.19c-0.3,0.13-0.56,0.3-0.78,0.53c-0.22,0.22-0.4,0.49-0.53,0.79
		c-0.13,0.3-0.19,0.63-0.19,0.98c0,0.23,0.03,0.46,0.08,0.67c0.06,0.21,0.14,0.41,0.25,0.6c0.11,0.18,0.23,0.35,0.39,0.5
		c0.15,0.15,0.31,0.28,0.5,0.39c0.18,0.11,0.38,0.19,0.59,0.25c0.21,0.06,0.43,0.09,0.66,0.09c0.13,0,0.26-0.02,0.37-0.05
		c0.12-0.03,0.23-0.08,0.34-0.13c0.1-0.05,0.2-0.11,0.29-0.18c0.09-0.06,0.16-0.13,0.23-0.2l0.05,0.17
		c0.02,0.04,0.03,0.08,0.05,0.12c0.01,0.04,0.03,0.07,0.05,0.09c0.02,0.03,0.05,0.04,0.08,0.06c0.03,0.01,0.07,0.02,0.13,0.02h0.75
		c0.03,0,0.06,0,0.1-0.01c0.04-0.01,0.07-0.03,0.1-0.05c0.03-0.03,0.06-0.05,0.07-0.09c0.02-0.04,0.03-0.08,0.03-0.12v-4.28
		C94.05,34.81,94.03,34.77,94.02,34.73z M92.51,37.47c-0.06,0.15-0.15,0.27-0.25,0.38c-0.11,0.1-0.23,0.19-0.38,0.25
		c-0.14,0.06-0.3,0.09-0.47,0.09c-0.16,0-0.31-0.03-0.45-0.09c-0.14-0.06-0.26-0.14-0.35-0.25c-0.09-0.11-0.17-0.23-0.22-0.38
		c-0.05-0.14-0.08-0.3-0.08-0.47c0-0.16,0.02-0.31,0.08-0.46c0.05-0.15,0.13-0.28,0.22-0.39c0.1-0.11,0.21-0.2,0.35-0.26
		c0.13-0.06,0.28-0.1,0.45-0.1c0.17,0,0.33,0.03,0.47,0.1c0.15,0.06,0.27,0.15,0.38,0.26c0.11,0.11,0.19,0.24,0.25,0.39
		c0.06,0.15,0.09,0.3,0.09,0.46C92.6,37.17,92.57,37.33,92.51,37.47z"/>
	<path class="st1" d="M95.38,34.66c0.03-0.03,0.07-0.05,0.1-0.05c0.04-0.01,0.07-0.01,0.1-0.01h0.57c0.05,0,0.09,0.01,0.12,0.02
		c0.03,0.02,0.06,0.04,0.08,0.07c0.02,0.03,0.04,0.06,0.05,0.09c0.02,0.03,0.03,0.07,0.04,0.11l0.08,0.33
		c0.04-0.08,0.1-0.16,0.19-0.24c0.08-0.08,0.19-0.16,0.32-0.23c0.12-0.07,0.27-0.12,0.43-0.17c0.16-0.04,0.35-0.06,0.55-0.06
		c0.29,0,0.54,0.06,0.77,0.17c0.23,0.11,0.42,0.26,0.58,0.45c0.16,0.19,0.28,0.42,0.36,0.67c0.08,0.26,0.12,0.53,0.12,0.82v2.49
		c0,0.1-0.02,0.17-0.06,0.22c-0.04,0.05-0.11,0.08-0.2,0.08h-0.88c-0.11,0-0.19-0.02-0.22-0.05c-0.04-0.04-0.06-0.11-0.06-0.22
		v-2.47c0-0.11-0.03-0.21-0.08-0.31c-0.05-0.1-0.11-0.19-0.19-0.26c-0.08-0.08-0.17-0.13-0.27-0.18c-0.1-0.04-0.21-0.06-0.31-0.06
		c-0.09,0-0.19,0.02-0.28,0.06c-0.09,0.04-0.18,0.1-0.26,0.17c-0.08,0.07-0.15,0.16-0.2,0.25c-0.05,0.1-0.08,0.2-0.09,0.32v2.47
		c0,0.04-0.01,0.09-0.02,0.13c-0.01,0.04-0.04,0.08-0.07,0.1c-0.03,0.02-0.06,0.03-0.09,0.04c-0.03,0.01-0.06,0.01-0.1,0.01h-0.86
		c-0.11,0-0.19-0.03-0.24-0.08c-0.05-0.05-0.07-0.12-0.07-0.21v-4.24c0-0.05,0.01-0.09,0.04-0.13c0.02-0.04,0.05-0.07,0.09-0.09
		L95.38,34.66z"/>
	<path class="st1" d="M101.04,34.87c0-0.09,0.03-0.16,0.08-0.21c0.06-0.06,0.13-0.08,0.22-0.08h3.2c0.08,0,0.15,0.03,0.21,0.07
		c0.06,0.05,0.09,0.12,0.09,0.22v0.66c0,0.02,0,0.05,0,0.08c0,0.03-0.02,0.06-0.04,0.09l-2.09,2.48h1.87c0.09,0,0.16,0.03,0.22,0.07
		c0.05,0.05,0.08,0.13,0.08,0.24v0.6c0,0.04-0.01,0.08-0.02,0.12c-0.01,0.04-0.03,0.07-0.06,0.1c-0.03,0.03-0.06,0.06-0.1,0.08
		c-0.04,0.02-0.08,0.03-0.12,0.03h-3.35c-0.04,0-0.08-0.01-0.12-0.03c-0.03-0.02-0.07-0.04-0.1-0.07c-0.03-0.03-0.05-0.07-0.07-0.1
		c-0.02-0.04-0.02-0.08-0.02-0.12v-0.53c0-0.04,0-0.07,0.01-0.1c0.01-0.03,0.02-0.07,0.05-0.1c0.17-0.19,0.35-0.39,0.53-0.61
		c0.19-0.22,0.37-0.44,0.56-0.66c0.19-0.23,0.38-0.45,0.57-0.67c0.19-0.22,0.36-0.42,0.53-0.61h-1.85c-0.09,0-0.17-0.03-0.22-0.08
		c-0.05-0.05-0.08-0.13-0.08-0.24V34.87z"/>
	<path class="st1" d="M110.68,34.73c-0.02-0.04-0.04-0.07-0.08-0.09c-0.03-0.03-0.06-0.05-0.1-0.05c-0.04-0.01-0.07-0.01-0.1-0.01
		h-0.56c-0.05,0-0.09,0-0.12,0.01c-0.03,0.01-0.05,0.02-0.07,0.04c-0.02,0.02-0.04,0.05-0.05,0.09c-0.02,0.04-0.03,0.09-0.06,0.15
		l-0.11,0.34c-0.07-0.1-0.15-0.19-0.24-0.27c-0.09-0.09-0.19-0.16-0.31-0.22c-0.11-0.06-0.23-0.11-0.37-0.14
		c-0.14-0.04-0.28-0.05-0.44-0.05c-0.34,0-0.66,0.06-0.96,0.19c-0.3,0.13-0.57,0.3-0.79,0.53c-0.22,0.22-0.4,0.49-0.53,0.79
		c-0.13,0.3-0.19,0.63-0.19,0.98c0,0.23,0.03,0.46,0.09,0.67c0.06,0.21,0.14,0.41,0.25,0.6c0.11,0.18,0.24,0.35,0.39,0.5
		c0.15,0.15,0.31,0.28,0.5,0.39c0.18,0.11,0.38,0.19,0.59,0.25c0.21,0.06,0.43,0.09,0.66,0.09c0.13,0,0.26-0.02,0.37-0.05
		c0.12-0.03,0.23-0.08,0.34-0.13c0.1-0.05,0.21-0.11,0.29-0.18c0.09-0.06,0.17-0.13,0.23-0.2l0.05,0.17
		c0.02,0.04,0.03,0.08,0.05,0.12c0.01,0.04,0.03,0.07,0.05,0.09c0.02,0.03,0.05,0.04,0.08,0.06c0.03,0.01,0.07,0.02,0.13,0.02h0.75
		c0.03,0,0.06,0,0.1-0.01c0.03-0.01,0.07-0.03,0.1-0.05c0.04-0.03,0.06-0.05,0.08-0.09c0.02-0.04,0.02-0.08,0.02-0.12v-4.28
		C110.7,34.81,110.7,34.77,110.68,34.73z M109.17,37.47c-0.06,0.15-0.14,0.27-0.25,0.38c-0.11,0.1-0.24,0.19-0.38,0.25
		c-0.15,0.06-0.3,0.09-0.47,0.09c-0.16,0-0.31-0.03-0.45-0.09c-0.14-0.06-0.25-0.14-0.35-0.25c-0.1-0.11-0.17-0.23-0.22-0.38
		c-0.05-0.14-0.08-0.3-0.08-0.47c0-0.16,0.02-0.31,0.08-0.46c0.05-0.15,0.13-0.28,0.22-0.39c0.1-0.11,0.21-0.2,0.35-0.26
		c0.13-0.06,0.28-0.1,0.45-0.1c0.17,0,0.33,0.03,0.47,0.1c0.14,0.06,0.27,0.15,0.38,0.26c0.11,0.11,0.19,0.24,0.25,0.39
		c0.06,0.15,0.09,0.3,0.09,0.46C109.26,37.17,109.23,37.33,109.17,37.47z"/>
	<path class="st1" d="M116.76,33.33c-0.02-0.04-0.04-0.07-0.07-0.09c-0.03-0.03-0.07-0.04-0.1-0.06c-0.04-0.01-0.08-0.02-0.1-0.02
		h-0.86c-0.1,0-0.17,0.03-0.22,0.08c-0.05,0.06-0.07,0.12-0.07,0.21v1.58c-0.07-0.08-0.15-0.14-0.23-0.21
		c-0.08-0.06-0.17-0.12-0.26-0.16c-0.09-0.05-0.2-0.08-0.31-0.11c-0.11-0.02-0.24-0.03-0.38-0.03c-0.35,0-0.66,0.06-0.95,0.19
		c-0.29,0.13-0.54,0.3-0.75,0.53c-0.21,0.22-0.37,0.49-0.49,0.79c-0.12,0.3-0.18,0.63-0.18,0.98c0,0.35,0.06,0.68,0.18,0.98
		c0.12,0.3,0.28,0.57,0.49,0.79c0.21,0.22,0.46,0.4,0.75,0.53c0.29,0.13,0.61,0.19,0.95,0.19c0.13,0,0.26-0.02,0.37-0.05
		c0.12-0.03,0.23-0.08,0.33-0.13c0.1-0.05,0.2-0.11,0.28-0.18c0.09-0.07,0.17-0.13,0.24-0.2l0.07,0.18
		c0.02,0.05,0.04,0.09,0.05,0.13c0.02,0.04,0.03,0.07,0.05,0.09c0.02,0.02,0.04,0.05,0.07,0.06c0.03,0.01,0.06,0.02,0.12,0.02h0.74
		c0.21,0,0.31-0.1,0.31-0.29v-5.67C116.79,33.41,116.78,33.36,116.76,33.33z M115.45,37.06c-0.01,0.16-0.04,0.31-0.11,0.45
		c-0.06,0.14-0.15,0.26-0.26,0.36c-0.1,0.1-0.23,0.18-0.37,0.24c-0.14,0.06-0.3,0.09-0.46,0.09c-0.16,0-0.31-0.03-0.45-0.09
		c-0.13-0.06-0.25-0.14-0.34-0.25c-0.1-0.11-0.17-0.23-0.23-0.38c-0.05-0.14-0.08-0.3-0.08-0.47c0-0.16,0.03-0.31,0.08-0.46
		c0.05-0.15,0.13-0.28,0.23-0.39c0.1-0.11,0.21-0.2,0.34-0.26c0.14-0.06,0.29-0.1,0.45-0.1c0.17,0,0.33,0.03,0.47,0.1
		c0.15,0.06,0.27,0.15,0.38,0.26c0.11,0.11,0.19,0.24,0.25,0.39c0.06,0.15,0.09,0.3,0.09,0.46V37.06z"/>
	<path class="st1" d="M122.77,36.02c-0.13-0.3-0.31-0.57-0.53-0.79c-0.22-0.22-0.48-0.4-0.79-0.53c-0.3-0.13-0.63-0.19-0.97-0.19
		c-0.23,0-0.45,0.03-0.67,0.08c-0.21,0.06-0.41,0.14-0.6,0.25c-0.18,0.11-0.35,0.24-0.5,0.39c-0.15,0.15-0.28,0.32-0.39,0.5
		c-0.11,0.18-0.19,0.39-0.25,0.6c-0.06,0.22-0.09,0.44-0.09,0.67c0,0.23,0.03,0.46,0.09,0.67c0.06,0.21,0.14,0.41,0.25,0.6
		c0.11,0.18,0.23,0.35,0.39,0.5c0.15,0.15,0.32,0.28,0.5,0.39c0.19,0.11,0.39,0.19,0.6,0.25c0.21,0.06,0.43,0.09,0.67,0.09
		c0.23,0,0.45-0.03,0.66-0.09c0.21-0.06,0.41-0.14,0.59-0.25c0.19-0.11,0.36-0.23,0.5-0.39c0.15-0.15,0.28-0.32,0.39-0.5
		c0.1-0.19,0.19-0.39,0.25-0.6c0.06-0.21,0.09-0.44,0.09-0.67C122.96,36.65,122.9,36.33,122.77,36.02z M121.46,37.47
		c-0.05,0.15-0.12,0.27-0.21,0.38c-0.09,0.1-0.21,0.19-0.34,0.25c-0.13,0.06-0.28,0.09-0.44,0.09c-0.17,0-0.32-0.03-0.46-0.09
		c-0.13-0.06-0.25-0.14-0.34-0.25c-0.1-0.11-0.17-0.23-0.22-0.38c-0.05-0.14-0.08-0.3-0.08-0.47c0-0.16,0.03-0.31,0.08-0.46
		c0.05-0.15,0.12-0.28,0.22-0.39c0.09-0.11,0.21-0.2,0.34-0.26c0.14-0.06,0.29-0.1,0.46-0.1c0.16,0,0.31,0.03,0.44,0.1
		c0.13,0.06,0.25,0.15,0.34,0.26c0.09,0.11,0.17,0.24,0.21,0.39c0.05,0.15,0.07,0.3,0.07,0.46
		C121.53,37.17,121.51,37.33,121.46,37.47z"/>
</g>
<g>
	<g>
		<path class="st2" d="M22.08,17.92c-0.97-1.23-2.29-2.1-3.98-2.64c1.21-0.66,2.14-1.5,2.79-2.51c0.65-1.01,0.97-2.16,0.97-3.43
			c0-1.53-0.35-2.89-1.03-4.06c-0.69-1.18-1.66-2.09-2.91-2.73c-1.25-0.65-2.69-0.97-4.29-0.97H0v29.31h13.66
			c1.95,0,3.68-0.36,5.17-1.09c1.49-0.72,2.65-1.74,3.47-3.05c0.82-1.3,1.23-2.81,1.23-4.49C23.52,20.59,23.04,19.15,22.08,17.92z
			 M6.37,6.81h5.19c1.14,0,2.05,0.3,2.74,0.89c0.69,0.59,1.03,1.37,1.03,2.32c0,0.95-0.35,1.72-1.05,2.32
			c-0.7,0.6-1.63,0.89-2.8,0.89H6.37V6.81z M15.78,24.63c-0.78,0.66-1.8,0.99-3.07,0.99H6.37v-7.17h6.38c1.24,0,2.25,0.33,3.03,0.99
			c0.77,0.66,1.16,1.52,1.16,2.57C16.95,23.1,16.56,23.97,15.78,24.63z"/>
		<rect x="27.64" class="st2" width="6.14" height="30.89"/>
		<path class="st2" d="M53.11,28.2c-0.71,1.01-1.61,1.77-2.69,2.3c-1.08,0.53-2.3,0.79-3.64,0.79c-1.59,0-2.99-0.35-4.2-1.05
			c-1.22-0.7-2.16-1.68-2.83-2.95c-0.67-1.27-1.01-2.73-1.01-4.4V9.39h6.14v12.55c0,1.22,0.38,2.2,1.13,2.95
			c0.75,0.75,1.74,1.13,2.95,1.13c1.19,0,2.16-0.38,2.91-1.13c0.75-0.75,1.13-1.73,1.13-2.95V9.39h6.14v21.51h-4.4L53.11,28.2z"/>
		<path class="st2" d="M83.74,14.54c-0.84-1.66-2.09-3-3.77-4.02c-1.68-1.02-3.69-1.53-6.04-1.53c-2.11,0-3.99,0.48-5.63,1.43
			c-1.64,0.95-2.91,2.29-3.82,4c-0.91,1.72-1.37,3.7-1.37,5.94c0,2.14,0.47,4.04,1.43,5.7c0.95,1.66,2.29,2.95,4.02,3.86
			c1.73,0.91,3.73,1.37,6,1.37c1.8,0,3.51-0.41,5.15-1.23c1.64-0.82,2.97-1.97,4-3.45l-4.75-2.38c-0.37,0.5-0.96,1-1.78,1.49
			c-0.82,0.49-1.72,0.73-2.7,0.73c-1.16,0-2.09-0.23-2.81-0.69c-0.71-0.46-1.22-1.01-1.53-1.64c-0.3-0.63-0.47-1.24-0.5-1.82h15.05
			l0.16-2.46C84.95,17.97,84.57,16.2,83.74,14.54z M69.66,18.18c0.03-1.13,0.42-2.14,1.19-3.03c0.76-0.88,1.82-1.33,3.17-1.33
			c1.42,0,2.51,0.44,3.27,1.33c0.75,0.89,1.13,1.9,1.13,3.03H69.66z"/>
		<path class="st2" d="M90.73,30.42c-1.4-0.58-2.36-1.16-2.89-1.74l2.3-3.72c1.4,0.9,3.18,1.4,5.35,1.5
			c0.87,0.03,1.5-0.12,1.88-0.43c0.38-0.32,0.57-0.7,0.57-1.15c0-0.37-0.13-0.71-0.4-1.03c-0.26-0.32-0.67-0.57-1.23-0.75L93.9,22.3
			c-1.37-0.45-2.46-0.88-3.27-1.29c-0.81-0.41-1.47-0.98-1.98-1.72c-0.51-0.74-0.77-1.72-0.77-2.93c0-1.21,0.29-2.38,0.87-3.51
			c0.58-1.12,1.49-2.05,2.71-2.77c1.23-0.73,2.77-1.09,4.61-1.09c3.04,0,5.61,0.74,7.72,2.22l-2.57,4c-1.53-0.92-3.1-1.39-4.72-1.39
			c-0.79,0-1.39,0.14-1.8,0.41c-0.41,0.28-0.61,0.65-0.61,1.13c0,0.42,0.16,0.78,0.49,1.07c0.33,0.29,0.85,0.54,1.57,0.75l2.34,0.75
			c1.95,0.66,3.39,1.48,4.32,2.48c0.92,0.99,1.39,2.38,1.39,4.18c0,1.35-0.37,2.53-1.13,3.55c-0.75,1.02-1.78,1.79-3.09,2.34
			c-1.31,0.54-2.79,0.81-4.46,0.81C93.73,31.29,92.13,31,90.73,30.42L90.73,30.42z"/>
		<polygon class="st2" points="124.43,30.89 117.5,22.38 117.86,21.94 114.49,25.43 114.49,30.89 108.31,30.89 108.31,0 114.49,0 
			114.49,17.51 122.25,9.43 130.06,9.43 121.38,18.34 132.2,30.89 		"/>
		<path class="st2" d="M142.83,38.32c-1.2,1.12-2.83,1.68-4.89,1.68c-1.4,0-2.52-0.21-3.37-0.63l0.63-4.99
			c0.47,0.24,1.04,0.36,1.7,0.36c0.74,0,1.34-0.2,1.8-0.6c0.46-0.39,0.94-1.08,1.45-2.06l0.83-1.74l-9.03-20.95h6.69l5.5,14.34
			l5.03-14.34h6.73l-9.74,23.49C145.15,35.38,144.03,37.19,142.83,38.32L142.83,38.32z"/>
	</g>
	<g>
		<path class="st2" d="M196.3,21.59c-1.42,0-2.58,1.16-2.58,2.58c0,0.48,0.16,0.9,0.39,1.28c-0.07,0.09-0.12,0.17-0.19,0.27
			c-0.33,0.52-0.79,0.96-1.31,1.5c-0.26,0.27-0.54,0.56-0.83,0.86c-0.34,0.27-0.7,0.56-1.07,0.86c-0.71,0.65-1.62,1.17-2.56,1.75
			c-0.94,0.59-2.03,1.02-3.13,1.52c-1.16,0.35-2.33,0.86-3.6,1.05c-0.63,0.12-1.26,0.29-1.9,0.36l-1.95,0.17
			c-0.65,0.09-1.26,0.05-1.96,0.03c-0.66-0.04-1.35,0.01-1.97-0.1c-1.27-0.16-2.52-0.32-3.72-0.67c-1.22-0.24-2.31-0.76-3.39-1.12
			c-1-0.52-2.02-0.92-2.84-1.49c-0.83-0.55-1.63-1.01-2.23-1.56c-0.61-0.53-1.2-0.94-1.58-1.39c-0.73-0.77-1.18-1.24-1.25-1.32
			c0.07,0.08,0.49,0.58,1.18,1.39c0.36,0.48,0.92,0.92,1.51,1.48c0.58,0.59,1.35,1.1,2.16,1.7c0.81,0.62,1.81,1.08,2.81,1.67
			c1.08,0.43,2.17,1.02,3.41,1.33c1.2,0.43,2.51,0.67,3.85,0.91c0.67,0.15,1.32,0.13,1.99,0.21c0.64,0.05,1.36,0.13,2.04,0.08
			l2.05-0.07c0.68-0.04,1.35-0.18,2.02-0.27c1.35-0.13,2.62-0.59,3.88-0.9c1.2-0.47,2.4-0.87,3.45-1.45
			c1.05-0.57,2.06-1.09,2.88-1.75c0.43-0.31,0.83-0.61,1.22-0.89c0.37-0.32,0.7-0.65,1.03-0.95c0.65-0.6,1.22-1.14,1.55-1.6
			c0.12-0.14,0.21-0.26,0.32-0.38c0.11,0.02,0.21,0.06,0.32,0.06c1.42,0,2.58-1.16,2.58-2.58C198.88,22.75,197.72,21.59,196.3,21.59
			z M196.3,24.83c-0.36,0-0.66-0.29-0.66-0.65c0-0.36,0.29-0.65,0.66-0.65c0.36,0,0.65,0.29,0.65,0.65
			C196.95,24.54,196.66,24.83,196.3,24.83z"/>
		<path class="st2" d="M201.81,20.45c-1.43,0-2.59,1.16-2.59,2.58c0,0.58,0.23,1.1,0.56,1.53c-0.15,0.24-0.31,0.51-0.51,0.83
			c-0.33,0.61-0.82,1.17-1.36,1.83c-0.28,0.33-0.56,0.7-0.88,1.06c-0.36,0.34-0.75,0.71-1.15,1.08c-0.76,0.8-1.74,1.48-2.76,2.23
			c-1.02,0.76-2.23,1.34-3.44,2.02c-1.29,0.51-2.58,1.18-4.01,1.51c-0.71,0.19-1.41,0.44-2.14,0.58l-2.21,0.37
			c-0.74,0.16-1.44,0.17-2.23,0.21c-0.75,0.01-1.53,0.13-2.25,0.06c-1.46-0.07-2.91-0.14-4.3-0.43c-1.41-0.16-2.69-0.65-3.95-0.97
			c-1.19-0.5-2.38-0.86-3.37-1.43c-0.99-0.55-1.94-1-2.67-1.57c-0.75-0.54-1.45-0.96-1.92-1.44c-0.9-0.81-1.46-1.31-1.55-1.39
			c0.09,0.09,0.62,0.61,1.48,1.46c0.45,0.5,1.13,0.95,1.86,1.54c0.71,0.62,1.64,1.12,2.62,1.72c0.97,0.62,2.16,1.05,3.35,1.62
			c1.26,0.38,2.56,0.94,3.99,1.18c1.4,0.36,2.9,0.52,4.44,0.65c0.77,0.11,1.51,0.02,2.28,0.04c0.73,0,1.56,0.02,2.32-0.11l2.32-0.27
			c0.77-0.11,1.51-0.34,2.26-0.5c1.52-0.28,2.91-0.92,4.3-1.4c1.31-0.65,2.63-1.22,3.76-1.97c1.13-0.75,2.22-1.43,3.09-2.26
			c0.45-0.39,0.88-0.76,1.29-1.12c0.39-0.39,0.73-0.8,1.07-1.17c0.67-0.74,1.26-1.39,1.59-1.95c0.27-0.4,0.49-0.71,0.67-0.98
			c0.01,0,0.01,0,0.01,0c1.42,0,2.58-1.16,2.58-2.58C204.4,21.61,203.24,20.45,201.81,20.45z M201.81,23.69
			c-0.37,0-0.66-0.3-0.66-0.66c0-0.36,0.29-0.65,0.66-0.65c0.36,0,0.65,0.29,0.65,0.65C202.47,23.39,202.17,23.69,201.81,23.69z"/>
		<path class="st2" d="M207.42,19.76c-1.42,0-2.58,1.16-2.58,2.58c0,0.63,0.25,1.19,0.63,1.64c-0.15,0.29-0.32,0.61-0.52,1.01
			c-0.31,0.71-0.81,1.37-1.37,2.16c-0.28,0.4-0.56,0.83-0.89,1.26c-0.37,0.41-0.77,0.85-1.18,1.3c-0.78,0.96-1.82,1.79-2.89,2.71
			c-0.51,0.49-1.14,0.87-1.75,1.29c-0.62,0.4-1.24,0.86-1.91,1.24c-1.39,0.67-2.76,1.53-4.33,2.02c-0.77,0.26-1.53,0.61-2.32,0.82
			l-2.42,0.59c-0.8,0.24-1.59,0.31-2.45,0.42c-0.83,0.08-1.68,0.27-2.49,0.26c-0.82,0.02-1.63,0.03-2.43,0.05
			c-0.8,0.02-1.6-0.12-2.38-0.17c-1.58-0.06-3.04-0.5-4.47-0.74c-1.36-0.46-2.71-0.76-3.85-1.31c-1.15-0.52-2.23-0.95-3.09-1.53
			c-0.87-0.54-1.69-0.94-2.25-1.44c-1.06-0.82-1.71-1.32-1.83-1.41c0.11,0.09,0.74,0.62,1.77,1.49c0.54,0.52,1.34,0.95,2.2,1.54
			c0.84,0.62,1.91,1.1,3.05,1.68c1.13,0.6,2.48,0.97,3.85,1.5c1.43,0.31,2.92,0.82,4.52,0.95c0.8,0.08,1.6,0.26,2.44,0.27
			c0.83,0.02,1.68,0.04,2.53,0.06c0.86,0.05,1.68-0.11,2.53-0.15c0.82-0.07,1.72-0.12,2.56-0.32l2.54-0.51
			c0.84-0.19,1.64-0.51,2.46-0.75c1.65-0.44,3.13-1.27,4.63-1.92c0.72-0.37,1.39-0.83,2.07-1.22c0.67-0.41,1.35-0.79,1.92-1.28
			c1.18-0.93,2.33-1.78,3.21-2.76c0.46-0.47,0.91-0.92,1.33-1.34c0.39-0.47,0.73-0.94,1.07-1.38c0.67-0.87,1.27-1.64,1.58-2.29
			c0.27-0.47,0.48-0.84,0.66-1.15c1.36-0.07,2.45-1.18,2.45-2.56C210,20.92,208.84,19.76,207.42,19.76z M207.42,23
			c-0.36,0-0.66-0.29-0.66-0.65c0-0.36,0.29-0.65,0.66-0.65c0.36,0,0.66,0.29,0.66,0.65C208.07,22.71,207.78,23,207.42,23z"/>
		<path class="st2" d="M189.39,2.13l-11.95-2.07c-2.18-0.38-4.25,1.09-4.63,3.27l-4.75,27.35c0.47,0.17,0.95,0.34,1.46,0.46
			l4.78-27.55c0.24-1.36,1.53-2.27,2.88-2.03l1.26,0.22l-0.04,0.2c-0.12,0.69,0.35,1.35,1.04,1.47l6.92,1.2
			c0.69,0.12,1.35-0.34,1.47-1.03l0.04-0.2l1.26,0.22c1.36,0.23,2.27,1.53,2.03,2.88l-3.97,22.88c0.33-0.16,0.65-0.33,0.95-0.52
			c0.26-0.16,0.51-0.32,0.76-0.47l3.75-21.63C193.03,4.59,191.57,2.51,189.39,2.13z M185.22,3.35c-0.02,0.14-0.16,0.23-0.3,0.21
			l-4.58-0.8c-0.14-0.03-0.23-0.16-0.21-0.3c0.02-0.13,0.13-0.21,0.25-0.21c0.02,0,0.03,0,0.04,0l4.58,0.8
			C185.15,3.08,185.24,3.21,185.22,3.35z M186.35,3.55c-0.02,0.14-0.16,0.23-0.3,0.21c-0.14-0.03-0.23-0.16-0.21-0.3
			c0.02-0.14,0.16-0.23,0.3-0.21C186.28,3.28,186.38,3.41,186.35,3.55z"/>
	</g>
</g>
</svg>
